<?xml version="1.0" encoding="UTF-8"?>
<!DOCTYPE svg PUBLIC "-//W3C//DTD SVG 1.1//EN" "http://www.w3.org/Graphics/SVG/1.1/DTD/svg11.dtd">
<!-- Creator: CorelDRAW 2017 -->
<svg xmlns="http://www.w3.org/2000/svg" xml:space="preserve" width="326.072mm" height="46.3973mm" version="1.1" style="shape-rendering:geometricPrecision; text-rendering:geometricPrecision; image-rendering:optimizeQuality; fill-rule:evenodd; clip-rule:evenodd"
viewBox="0 0 35688.97 5078.23"
 xmlns:xlink="http://www.w3.org/1999/xlink">
 <defs>
  <style type="text/css">
   <![CDATA[
    .fil1 {fill:none;fill-rule:nonzero}
    .fil0 {fill:black;fill-rule:nonzero}
   ]]>
  </style>
 </defs>
 <g id="Camada_x0020_1">
  <metadata id="CorelCorpID_0Corel-Layer"/>
  <g id="_2361902777104">
   <polygon class="fil0" points="22868.63,2711.32 22793.91,2711.32 23773.09,1890.36 23847.78,1890.36 "/>
   <polygon class="fil0" points="24746.35,2711.32 24821.08,2711.32 23841.89,1890.36 23767.18,1890.36 "/>
   <path class="fil0" d="M16802.5 4414.62c-48.21,0 -87.28,-34.67 -87.28,-77.46 0,-42.76 39.06,-77.44 87.28,-77.44 48.19,0 87.25,34.67 87.25,77.44 0,42.78 -39.06,77.46 -87.25,77.46zm265.71 -114.53l-14.17 -47.49c-1.7,-5.63 -7.64,-9.41 -14.21,-9.02l-9.75 0.62c-6.28,-12.12 -13.77,-23.63 -22.3,-34.42l5.55 -7.2c3.69,-4.82 3.01,-11.3 -1.62,-15.43l-39.03 -34.84c-4.64,-4.14 -11.92,-4.76 -17.36,-1.49l-8.14 4.88c-12.14,-7.66 -25.09,-14.34 -38.68,-19.99l0.76 -8.67c0.5,-5.8 -3.73,-11.12 -10.07,-12.65l-53.43 -12.83c-6.36,-1.53 -13.04,1.17 -15.91,6.39l-4.29 7.85c-7.6,-0.62 -15.29,-0.94 -23.05,-0.94 -7.3,0 -14.54,0.3 -21.67,0.84l-4.25 -7.88c-2.85,-5.25 -9.51,-7.97 -15.88,-6.48l-53.48 12.58c-6.37,1.51 -10.64,6.79 -10.16,12.61l0.66 8.67c-13.6,5.56 -26.59,12.2 -38.78,19.78l-8.09 -4.93c-5.44,-3.27 -12.75,-2.68 -17.41,1.43l-39.23 34.64c-4.66,4.12 -5.4,10.58 -1.71,15.4l5.49 7.23c-8.59,10.77 -16.15,22.24 -22.51,34.32l-9.73 -0.67c-6.57,-0.45 -12.56,3.32 -14.26,8.93l-14.49 47.43c-1.72,5.65 1.31,11.57 7.23,14.12l8.84 3.81c-0.7,6.74 -1.08,13.57 -1.08,20.46 0,6.48 0.33,12.89 0.95,19.24l-8.88 3.75c-5.92,2.53 -8.99,8.45 -7.31,14.1l14.2 47.47c1.67,5.65 7.65,9.43 14.21,9.02l9.74 -0.6c6.3,12.08 13.78,23.6 22.3,34.42l-5.53 7.18c-3.71,4.83 -3.04,11.3 1.59,15.45l39.04 34.82c4.63,4.14 11.91,4.78 17.37,1.51l8.13 -4.88c12.14,7.63 25.09,14.32 38.67,19.96l-0.76 8.66c-0.47,5.82 3.74,11.15 10.1,12.66l53.41 12.85c6.36,1.53 13.02,-1.16 15.89,-6.41l4.32 -7.85c7.6,0.61 15.27,0.96 23.05,0.96 7.29,0 14.51,-0.3 21.66,-0.84l4.26 7.85c2.85,5.28 9.5,8 15.86,6.49l53.51 -12.58c6.34,-1.49 10.61,-6.79 10.14,-12.61l-0.68 -8.65c13.65,-5.59 26.6,-12.23 38.79,-19.78l8.12 4.9c5.41,3.29 12.72,2.7 17.38,-1.41l39.26 -34.64c4.66,-4.12 5.35,-10.57 1.67,-15.43l-5.49 -7.2c8.62,-10.77 16.15,-22.26 22.51,-34.32l9.74 0.65c6.56,0.45 12.55,-3.29 14.28,-8.94l14.45 -47.43c1.73,-5.61 -1.3,-11.54 -7.22,-14.09l-8.81 -3.83c0.67,-6.74 1.05,-13.55 1.05,-20.46 0,-6.47 -0.33,-12.87 -0.94,-19.22l8.88 -3.79c5.91,-2.53 8.97,-8.42 7.3,-14.06z"/>
   <path class="fil0" d="M16094.62 4414.62c-48.18,0 -87.28,-34.67 -87.28,-77.46 0,-42.76 39.1,-77.44 87.28,-77.44 48.21,0 87.28,34.67 87.28,77.44 0,42.78 -39.06,77.46 -87.28,77.46zm265.71 -114.53l-14.17 -47.49c-1.66,-5.63 -7.64,-9.41 -14.2,-9.02l-9.76 0.62c-6.28,-12.12 -13.76,-23.63 -22.27,-34.42l5.53 -7.2c3.71,-4.82 3.04,-11.3 -1.59,-15.43l-39.04 -34.84c-4.63,-4.14 -11.94,-4.76 -17.38,-1.49l-8.12 4.88c-12.14,-7.66 -25.09,-14.34 -38.67,-19.99l0.72 -8.67c0.5,-5.8 -3.71,-11.12 -10.07,-12.65l-53.43 -12.83c-6.34,-1.53 -13,1.17 -15.88,6.39l-4.32 7.85c-7.58,-0.62 -15.26,-0.94 -23.05,-0.94 -7.28,0 -14.5,0.3 -21.65,0.84l-4.27 -7.88c-2.85,-5.25 -9.48,-7.97 -15.85,-6.48l-53.51 12.58c-6.34,1.51 -10.62,6.79 -10.16,12.61l0.69 8.67c-13.64,5.56 -26.61,12.2 -38.79,19.78l-8.11 -4.93c-5.41,-3.27 -12.73,-2.68 -17.38,1.43l-39.26 34.64c-4.66,4.12 -5.36,10.58 -1.67,15.4l5.46 7.23c-8.58,10.77 -16.12,22.24 -22.48,34.32l-9.77 -0.67c-6.56,-0.45 -12.52,3.32 -14.25,8.93l-14.48 47.43c-1.71,5.65 1.34,11.57 7.22,14.12l8.85 3.81c-0.71,6.74 -1.06,13.57 -1.06,20.46 0,6.48 0.33,12.89 0.94,19.24l-8.87 3.75c-5.92,2.53 -8.99,8.45 -7.32,14.1l14.17 47.47c1.71,5.65 7.65,9.43 14.21,9.02l9.76 -0.6c6.28,12.08 13.76,23.6 22.3,34.42l-5.55 7.18c-3.71,4.83 -3.04,11.3 1.6,15.45l39.03 34.82c4.65,4.14 11.94,4.78 17.38,1.51l8.14 -4.88c12.14,7.63 25.06,14.32 38.67,19.96l-0.74 8.66c-0.5,5.82 3.74,11.15 10.07,12.66l53.43 12.85c6.37,1.53 13.04,-1.16 15.9,-6.41l4.29 -7.85c7.6,0.61 15.3,0.96 23.05,0.96 7.32,0 14.54,-0.3 21.68,-0.84l4.25 7.85c2.85,5.28 9.51,8 15.84,6.49l53.53 -12.58c6.36,-1.49 10.63,-6.79 10.15,-12.61l-0.69 -8.65c13.64,-5.59 26.61,-12.23 38.81,-19.78l8.09 4.9c5.44,3.29 12.73,2.7 17.38,-1.41l39.26 -34.64c4.65,-4.12 5.38,-10.57 1.7,-15.43l-5.49 -7.2c8.59,-10.77 16.13,-22.26 22.49,-34.32l9.77 0.65c6.56,0.45 12.52,-3.29 14.25,-8.94l14.48 -47.43c1.73,-5.61 -1.31,-11.54 -7.23,-14.09l-8.83 -3.83c0.69,-6.74 1.05,-13.55 1.05,-20.46 0,-6.47 -0.31,-12.87 -0.91,-19.22l8.83 -3.79c5.95,-2.53 9.02,-8.42 7.31,-14.06z"/>
   <polygon class="fil0" points="15469.55,4138.19 15091.08,4573.39 15471.48,4573.39 "/>
   <path class="fil0" d="M16048.5 3826.86l36.48 0 -5.4 62.87 -37.3 10.05 6.22 -72.92zm711.45 101.57l-287.41 0 373.99 -101 -86.59 101zm287.88 -219.88c25.22,0 45.65,18.14 45.65,40.52 0,22.38 -20.43,40.54 -45.65,40.54 -25.23,0 -45.68,-18.16 -45.68,-40.54 0,-22.38 20.46,-40.52 45.68,-40.52zm-920.2 34.97l421.3 0 -1.03 19.99 -125.64 33.88 -299.26 0 4.63 -53.86zm-72.07 0l36.52 0 -4.6 53.86 -36.5 0 4.58 -53.86zm7.09 -83.3l36.58 0 -4.61 53.84 -36.55 0 4.58 -53.84zm7.09 -83.33l36.63 0 -4.61 53.86 -36.61 0 4.59 -53.86zm39.17 -29.46l-36.67 0 2.96 -35.09 36.69 0 -2.98 35.09zm452.21 -35.09l-1.84 35.09 -414.85 0 2.99 -35.09 413.7 0zm33.68 35.09l1.84 -35.09 24.09 0 2.98 35.09 -28.91 0zm36 83.33l-40.38 0 2.82 -53.86 32.98 0 4.58 53.86zm-493.51 0l4.61 -53.86 415.83 0 -2.81 53.86 -417.62 0zm416.06 29.46l-2.85 53.84 -420.35 0 4.6 -53.84 418.6 0zm84.54 53.84l-51.87 0 2.85 -53.84 44.46 0 4.56 53.84zm-53.96 39.74l0.56 -10.28 37.59 0 -38.14 10.28zm-467.98 126.14l4.55 -53.08 192.44 0 -196.99 53.08zm-433.49 569.42l11.58 -27.64 106.09 0c-9.72,-26.64 -15.02,-55.04 -15.02,-84.56 0,-151.7 138.59,-274.7 309.52,-274.7 170.69,0 309.08,122.61 309.53,274l88.84 0c0.45,-151.39 138.84,-274 309.52,-274 150.29,0 275.51,95.09 303.58,221.16l1.71 -3.48 66.12 -85.79 0 -554.7 -166.44 0 -265.97 71.68 -24.71 -290.91 -1.15 0 0 -48.63 -825.13 0 30.44 83.76 55.23 0 -40.18 472.87 0 0 -244.15 199.61 0 0.03 -0.03 0 -0.36 0.32 0 0.39 -155.08 280.93 -37.5 0 0 163.68 183.57 0 0 -124.03z"/>
   <polygon class="fil0" points="21327.58,3621.92 22067.28,3621.92 21968.58,3418.91 21426.28,3418.91 "/>
   <path class="fil0" d="M21354.42 3786.85l71.85 361.44 542.31 0 71.85 -361.44 81.03 0 0 379.05 -835.88 0 0 -379.05 68.83 0zm-340.29 190.55l162.09 285.57 1054.63 0 0 -476.12 32.36 0 0 65.92c0,10.45 9.54,18.91 21.32,18.91 11.78,0 21.31,-8.46 21.31,-18.91l0 -182.32c0,-10.45 -9.53,-18.92 -21.31,-18.92 -11.78,0 -21.32,8.47 -21.32,18.92l0 65.94 -32.36 0 0 -161.51 -109.37 0 0 161.51 -71.01 0 16.82 -84.67 -739.69 0 16.82 84.67 -58.82 0 0 -161.51 -109.37 0 -162.09 402.52z"/>
   <polygon class="fil0" points="21069.63,4363.88 21130.42,4363.88 21130.42,4486.55 21227.22,4486.55 21227.22,4363.88 22146.1,4363.88 22146.1,4486.55 22242.9,4486.55 22242.9,4363.88 22335.98,4363.88 22335.98,4285.91 21069.63,4285.91 "/>
   <polygon class="fil0" points="23188.45,4217.41 23470.46,4408.01 23752.51,4598.6 22624.37,4598.6 22906.42,4408.01 "/>
   <polygon class="fil0" points="24139.39,4289.62 24421.44,4480.22 24703.47,4670.79 23575.35,4670.79 23857.38,4480.22 "/>
   <polygon class="fil0" points="26446.01,4306.13 26728.1,4496.71 27010.2,4687.31 25881.95,4687.31 26163.96,4496.71 "/>
   <polygon class="fil0" points="25878.67,4363.9 26160.68,4554.5 26442.66,4745.08 25314.59,4745.08 25596.63,4554.5 "/>
   <polygon class="fil0" points="23651.3,3991.75 23931.27,4217.75 24211.27,4443.79 23688.25,4634.16 23091.32,4443.79 23371.32,4217.75 "/>
   <path class="fil0" d="M28408.66 4310.14c-58.87,0 -106.31,-42.24 -106.31,-94.31 0,-52.1 47.44,-94.32 106.31,-94.32 58.59,0 106.31,42.23 106.31,94.32 0,52.08 -47.72,94.31 -106.31,94.31zm323.38 -139.48l-17.02 -57.82c-2.22,-6.85 -9.49,-11.46 -17.29,-10.97l-12 0.74c-7.54,-14.73 -16.75,-28.77 -27.07,-41.93l6.69 -8.76c4.47,-5.87 3.63,-13.77 -1.95,-18.79l-47.44 -42.42c-5.86,-5.06 -14.79,-5.82 -21.2,-1.83l-10.05 5.94c-14.79,-9.31 -30.42,-17.47 -47.16,-24.32l1.12 -10.55c0.57,-7.08 -4.73,-13.54 -12.27,-15.42l-65.3 -15.63c-7.52,-1.86 -15.62,1.41 -19.24,7.8l-5.31 9.56c-9.2,-0.77 -18.42,-1.16 -27.9,-1.16 -8.93,0 -17.86,0.37 -26.51,1.01l-5.01 -9.58c-3.63,-6.39 -11.72,-9.71 -19.54,-7.9l-65.01 15.33c-7.81,1.83 -13.12,8.26 -12.28,15.35l0.56 10.55c-16.46,6.79 -32.36,14.89 -47.15,24.09l-9.77 -5.99c-6.7,-4.02 -15.62,-3.29 -21.2,1.73l-47.72 42.17c-5.84,5.02 -6.69,12.9 -2.22,18.8l6.7 8.78c-10.32,13.1 -19.54,27.09 -27.34,41.81l-12.01 -0.82c-7.81,-0.53 -15.06,4.04 -17.3,10.89l-17.58 57.76c-2.22,6.85 1.69,14.05 8.93,17.18l10.61 4.65c-0.83,8.2 -1.4,16.52 -1.4,24.91 0,7.87 0.57,15.7 1.4,23.4l-10.88 4.61c-7.26,3.06 -10.88,10.28 -8.93,17.13l17.3 57.84c1.95,6.86 9.2,11.47 17.29,10.98l11.72 -0.74c7.81,14.73 16.74,28.75 27.34,41.92l-6.7 8.77c-4.74,5.87 -3.91,13.74 1.67,18.79l47.72 42.42c5.57,5.02 14.5,5.79 21.2,1.83l9.76 -5.94c14.79,9.28 30.7,17.44 47.15,24.32l-0.83 10.55c-0.56,7.07 4.47,13.54 12.28,15.4l65 15.65c7.81,1.85 15.91,-1.41 19.26,-7.8l5.3 -9.56c9.2,0.74 18.69,1.14 28.18,1.14 8.93,0 17.58,-0.35 26.22,-1.02l5.3 9.58c3.36,6.42 11.45,9.74 19.25,7.91l65.3 -15.33c7.53,-1.81 12.83,-8.25 12.28,-15.36l-0.84 -10.53c16.46,-6.81 32.36,-14.87 47.16,-24.09l10.04 5.98c6.41,4.01 15.35,3.28 20.94,-1.71l47.98 -42.2c5.58,-5 6.42,-12.9 1.95,-18.77l-6.69 -8.79c10.59,-13.12 19.8,-27.11 27.34,-41.8l12 0.8c8.1,0.55 15.35,-4.04 17.3,-10.9l17.58 -57.75c2.23,-6.84 -1.4,-14.06 -8.65,-17.16l-10.89 -4.65c0.84,-8.22 1.4,-16.52 1.4,-24.91 0,-7.9 -0.28,-15.71 -1.12,-23.42l10.88 -4.61c6.97,-3.08 10.88,-10.26 8.65,-17.14z"/>
   <path class="fil0" d="M27401.11 4171.25c51.06,0 92.35,36.73 92.35,82.04 0,45.29 -41.3,82.03 -92.35,82.03 -51.07,0 -92.64,-36.74 -92.64,-82.03 0,-45.31 41.57,-82.04 92.64,-82.04zm-281.54 121.32l15.07 50.29c1.66,5.98 8.09,9.98 15.06,9.53l10.33 -0.65c6.7,12.83 14.5,25.01 23.43,36.48l-5.87 7.63c-3.91,5.1 -3.06,11.96 1.67,16.34l41.58 36.9c4.74,4.38 12.55,5.05 18.42,1.59l8.36 -5.16c12.84,8.08 26.79,15.16 41.02,21.15l-0.84 9.17c-0.27,6.16 4.18,11.78 10.89,13.39l56.63 13.63c6.7,1.61 13.68,-1.24 16.75,-6.79l4.47 -8.32c8.09,0.63 16.19,1.01 24.56,1.01 7.52,0 15.33,-0.32 22.88,-0.89l4.47 8.32c3.06,5.57 10.04,8.47 16.75,6.88l56.63 -13.32c6.98,-1.59 11.45,-7.2 10.89,-13.37l-0.84 -9.16c14.51,-5.91 28.18,-12.93 41.3,-20.95l8.37 5.2c5.86,3.49 13.67,2.85 18.42,-1.51l41.57 -36.68c5.02,-4.35 5.86,-11.22 1.95,-16.34l-5.86 -7.65c9.22,-11.39 17.02,-23.56 23.72,-36.35l10.32 0.69c6.97,0.47 13.4,-3.48 15.36,-9.46l15.35 -50.22c1.67,-5.97 -1.4,-12.26 -7.81,-14.96l-9.22 -4.04c0.56,-7.15 1.12,-14.36 1.12,-21.66 0,-6.86 -0.56,-13.67 -1.12,-20.38l9.49 -3.98c6.14,-2.68 9.49,-8.94 7.54,-14.92l-14.8 -50.28c-1.95,-6 -8.09,-9.98 -15.06,-9.57l-10.32 0.65c-6.71,-12.83 -14.8,-25.01 -23.73,-36.45l5.87 -7.63c3.91,-5.1 3.35,-11.96 -1.67,-16.34l-41.3 -36.9c-5.02,-4.39 -12.55,-5.06 -18.42,-1.61l-8.65 5.17c-12.83,-8.09 -26.51,-15.17 -41.01,-21.14l0.83 -9.19c0.56,-6.14 -3.91,-11.79 -10.59,-13.4l-56.65 -13.59c-6.69,-1.63 -13.94,1.21 -16.74,6.79l-4.75 8.3c-8.09,-0.65 -16.18,-1 -24.27,-1 -7.81,0 -15.35,0.3 -23.16,0.9l-4.48 -8.35c-3.06,-5.57 -10.04,-8.44 -16.74,-6.85l-56.64 13.32c-6.7,1.59 -11.16,7.18 -10.89,13.34l0.84 9.17c-14.5,5.91 -28.18,12.95 -41.02,20.97l-8.64 -5.23c-5.87,-3.47 -13.4,-2.85 -18.42,1.51l-41.58 36.71c-5.02,4.35 -5.57,11.21 -1.67,16.31l5.58 7.65c-8.93,11.42 -17.02,23.58 -23.72,36.35l-10.32 -0.69c-6.97,-0.47 -13.39,3.51 -15.07,9.49l-15.33 50.22c-1.96,5.97 1.39,12.24 7.52,14.93l9.5 4.06c-0.84,7.14 -1.12,14.37 -1.12,21.67 0,6.86 0.27,13.64 0.83,20.35l-9.22 4.02c-6.41,2.68 -9.48,8.92 -7.8,14.91z"/>
   <path class="fil0" d="M28501.86 3606.19l0 -289.53 132.53 0 47.71 289.53 -180.24 0zm-97.66 0l-339.57 0 39.89 -289.53 299.68 0 0 289.53zm-1513.99 763.65c-25.95,0 -46.87,-18.65 -46.87,-41.62 0,-22.97 20.92,-41.62 46.87,-41.62 25.68,0 46.89,18.65 46.89,41.62 0,22.97 -21.21,41.62 -46.89,41.62zm1876.17 -1112.26l0 -89.84 -473.78 0 -21.21 -99.13 -130.3 0 -21.21 99.13 -158.47 0 0 89.84 70.87 0 -41.3 300.1 -787.13 180.54 -402.91 436.08 0 230.95 266.47 0 0 -230.95c53.57,-112.31 136.44,-157.74 136.44,-157.74 55.24,-36.17 123.33,-57.63 197.27,-57.63 144.25,0 266.74,81.77 312.5,195.93l324.77 0c32.38,-155.39 185.84,-273.14 370.27,-273.14 133.38,0 250.84,61.81 317.53,154.88l32.36 -136.7 52.74 0 -106.04 -642.32 61.11 0z"/>
   <path class="fil0" d="M26771.07 3291.46c0,0 171.6,57.37 156.53,200.19 -15.35,142.82 -178.85,-110.57 -178.85,-110.57l-2.51 -60.35 24.83 -29.27z"/>
   <path class="fil0" d="M26135.06 3126.34l641.32 206.02c80.91,26.01 139.23,89.03 152.34,164.45 29.3,169.23 86.5,498.28 102.68,597.92l-111.05 26.83 -107.14 -531.86c-22.6,-83.2 -87.33,-152.29 -175.79,-186.76l-532.24 -208.23 29.88 -68.37z"/>
   <path class="fil0" d="M25977.85 3096.72c3.33,-13.01 17.94,-21.17 32.63,-18.2 14.68,2.98 23.85,15.93 20.5,28.95 -3.34,13.02 -17.94,21.17 -32.62,18.2 -14.68,-2.94 -23.85,-15.93 -20.51,-28.95zm-55.1 113.64c-3.99,15.6 2.67,31.84 17.07,41.5l32.44 21.76 -212.14 569.94 68.78 13.91 334.8 -695.44 -14.56 -148.94c-1.48,-15.04 -12.03,-28.72 -28.86,-35.11 -17.26,-6.56 -37.36,-2.57 -51.19,8.67l-112.32 91.22 -34.03 132.49z"/>
   <path class="fil0" d="M25828.91 3857.48c0,0 -130.68,115.1 -112.83,352.89l-151.54 -51.16c-72.02,-24.29 -124.76,-79.81 -139.82,-146.87 -10.41,-46.33 -16.1,-94.69 -2.48,-117.5 30.3,-50.76 360.53,-97.78 360.53,-97.78l46.14 60.42z"/>
   <polygon class="fil0" points="26749.31,3326.35 26771.07,3291.46 26383.23,3102.25 26361.74,3137.16 "/>
   <line class="fil1" x1="26399.96" y1="3132.48" x2="26113.52" y2= "3011.81" />
   <polygon class="fil0" points="26396.34,3138.85 26403.32,3126.12 26116.92,3005.45 26110.11,3018.18 "/>
   <line class="fil1" x1="25956.04" y1="3228.01" x2="25668.64" y2= "3905.3" />
   <polygon class="fil0" points="25676.06,3907.8 25963.48,3230.49 25948.62,3225.55 25661.22,3902.83 "/>
   <polygon class="fil0" points="1628.5,4614.23 3909.1,4614.23 3909.1,375.5 1628.5,375.5 "/>
   <polygon class="fil0" points="31905.95,2439.28 31140.6,2769.7 31140.6,2429.5 30182.13,2899.86 30115.73,1707.29 29455.28,1707.29 29311.31,4289.64 29043.45,4289.64 29043.45,4491.71 32316.95,4491.71 32316.95,4289.64 31905.95,4289.64 "/>
   <polygon class="fil0" points="33444.21,4289.64 33444.21,2439.28 32679.13,2769.7 32679.13,2429.5 31744.41,2888.17 31744.41,4491.71 33855.21,4491.71 33855.21,4289.64 "/>
   <polygon class="fil0" points="30429.36,3319.88 30764.18,3319.88 30764.18,3033.6 30429.36,3033.6 "/>
   <polygon class="fil0" points="30429.36,3837.38 30764.18,3837.38 30764.18,3551.1 30429.36,3551.1 "/>
   <polygon class="fil0" points="31335.07,3319.88 31669.9,3319.88 31669.9,3033.6 31335.07,3033.6 "/>
   <polygon class="fil0" points="31335.07,3837.38 31669.9,3837.38 31669.9,3551.1 31335.07,3551.1 "/>
   <polygon class="fil0" points="32110.48,3319.88 32445.31,3319.88 32445.31,3033.6 32110.48,3033.6 "/>
   <polygon class="fil0" points="32110.48,3837.38 32445.31,3837.38 32445.31,3551.1 32110.48,3551.1 "/>
   <polygon class="fil0" points="32842.36,3319.88 33177.46,3319.88 33177.46,3033.6 32842.36,3033.6 "/>
   <polygon class="fil0" points="32842.36,3837.38 33177.46,3837.38 33177.46,3551.1 32842.36,3551.1 "/>
   <polygon class="fil0" points="11325.12,819.41 11570.63,819.41 11570.63,754.39 11325.12,754.39 "/>
   <polygon class="fil0" points="11660.48,819.41 12047.29,819.41 12047.29,754.39 11660.48,754.39 "/>
   <polygon class="fil0" points="10284.08,819.41 10687.5,819.41 10687.5,754.39 10284.08,754.39 "/>
   <polygon class="fil0" points="12215.76,819.41 12339.68,819.41 12339.68,754.39 12215.76,754.39 "/>
   <polygon class="fil0" points="10928.96,819.41 11083.66,819.41 11083.66,754.39 10928.96,754.39 "/>
   <polygon class="fil0" points="10284.08,754.39 10687.5,754.39 10687.5,686.87 10284.08,686.87 "/>
   <polygon class="fil0" points="11660.48,754.39 12047.29,754.39 12047.29,686.87 11660.48,686.87 "/>
   <polygon class="fil0" points="10928.96,754.39 11083.66,754.39 11083.66,686.87 10928.96,686.87 "/>
   <polygon class="fil0" points="11325.12,754.39 11570.63,754.39 11570.63,686.87 11325.12,686.87 "/>
   <polygon class="fil0" points="12215.76,754.39 12339.68,754.39 12339.68,686.87 12215.76,686.87 "/>
   <polygon class="fil0" points="10284.08,1066.75 10687.5,1066.75 10687.5,934.23 10284.08,934.23 "/>
   <polygon class="fil0" points="10928.96,1066.75 11083.66,1066.75 11083.66,934.23 10928.96,934.23 "/>
   <polygon class="fil0" points="11660.48,1066.75 12047.29,1066.75 12047.29,934.23 11660.48,934.23 "/>
   <polygon class="fil0" points="12215.76,1066.75 12339.68,1066.75 12339.68,934.23 12215.76,934.23 "/>
   <polygon class="fil0" points="11325.12,1066.75 11570.63,1066.75 11570.63,934.23 11325.12,934.23 "/>
   <polygon class="fil0" points="12215.76,1314.14 12339.68,1314.14 12339.68,1181.59 12215.76,1181.59 "/>
   <polygon class="fil0" points="10928.96,1314.14 11083.66,1314.14 11083.66,1181.59 10928.96,1181.59 "/>
   <polygon class="fil0" points="11325.12,1314.14 11570.63,1314.14 11570.63,1181.59 11325.12,1181.59 "/>
   <polygon class="fil0" points="10578.98,1314.14 10687.49,1314.14 10687.49,1181.6 10284.08,1181.6 10284.08,1279.64 10578.98,1279.64 "/>
   <polygon class="fil0" points="11660.48,1314.14 12047.29,1314.14 12047.29,1181.59 11660.48,1181.59 "/>
   <polygon class="fil0" points="10687.49,1428.96 10578.98,1428.96 10578.98,1478.29 10284.08,1478.29 10284.08,1561.48 10687.49,1561.48 "/>
   <polygon class="fil0" points="10928.96,1561.48 11083.66,1561.48 11083.66,1428.96 10928.96,1428.96 "/>
   <polygon class="fil0" points="12215.76,1561.48 12339.68,1561.48 12339.68,1428.96 12215.76,1428.96 "/>
   <polygon class="fil0" points="11796,1525.58 12008.36,1525.58 12008.36,1561.48 12047.29,1561.48 12047.29,1428.96 11660.48,1428.96 11660.48,1561.48 11796,1561.48 "/>
   <polygon class="fil0" points="11325.12,1561.48 11570.63,1561.48 11570.63,1428.96 11325.12,1428.96 "/>
   <polygon class="fil0" points="11325.12,1808.87 11570.63,1808.87 11570.63,1676.34 11325.12,1676.34 "/>
   <polygon class="fil0" points="10284.08,1808.87 10687.5,1808.87 10687.5,1676.34 10284.08,1676.34 "/>
   <polygon class="fil0" points="12215.76,1808.87 12339.68,1808.87 12339.68,1676.34 12215.76,1676.34 "/>
   <polygon class="fil0" points="12047.29,1676.34 12008.36,1676.34 12008.36,1780.99 11796,1780.99 11796,1676.34 11660.48,1676.34 11660.48,1808.87 12047.29,1808.87 "/>
   <polygon class="fil0" points="10928.96,1808.87 11083.66,1808.87 11083.66,1676.34 10928.96,1676.34 "/>
   <polygon class="fil0" points="12215.76,2056.21 12339.68,2056.21 12339.68,1923.69 12215.76,1923.69 "/>
   <polygon class="fil0" points="10284.08,2056.21 10687.5,2056.21 10687.5,1923.69 10284.08,1923.69 "/>
   <polygon class="fil0" points="11325.12,2056.21 11570.63,2056.21 11570.63,1923.69 11325.12,1923.69 "/>
   <polygon class="fil0" points="11660.48,2056.21 12047.29,2056.21 12047.29,1923.69 11660.48,1923.69 "/>
   <polygon class="fil0" points="10928.96,2056.21 11083.66,2056.21 11083.66,1923.69 10928.96,1923.69 "/>
   <polygon class="fil0" points="11660.48,2303.61 12047.29,2303.61 12047.29,2171.07 11660.48,2171.07 "/>
   <polygon class="fil0" points="10928.96,2303.61 11083.66,2303.61 11083.66,2171.07 10928.96,2171.07 "/>
   <polygon class="fil0" points="12215.76,2303.61 12339.68,2303.61 12339.68,2171.07 12215.76,2171.07 "/>
   <polygon class="fil0" points="10284.08,2303.61 10687.5,2303.61 10687.5,2171.07 10284.08,2171.07 "/>
   <polygon class="fil0" points="11325.12,2303.61 11570.63,2303.61 11570.63,2171.07 11325.12,2171.07 "/>
   <polygon class="fil0" points="12215.76,2550.95 12339.68,2550.95 12339.68,2418.42 12215.76,2418.42 "/>
   <polygon class="fil0" points="11325.12,2550.95 11570.63,2550.95 11570.63,2418.42 11325.12,2418.42 "/>
   <polygon class="fil0" points="11003.71,2550.95 11083.65,2550.95 11083.65,2418.42 10928.96,2418.42 10928.96,2480.97 11003.71,2480.97 "/>
   <polygon class="fil0" points="10284.08,2550.95 10687.5,2550.95 10687.5,2418.42 10284.08,2418.42 "/>
   <polygon class="fil0" points="11660.48,2550.95 12047.29,2550.95 12047.29,2418.42 11660.48,2418.42 "/>
   <polygon class="fil0" points="11325.12,2805.83 11570.63,2805.83 11570.63,2673.31 11325.12,2673.31 "/>
   <polygon class="fil0" points="12215.76,2805.83 12339.68,2805.83 12339.68,2673.31 12215.76,2673.31 "/>
   <polygon class="fil0" points="10619.83,2805.83 10687.49,2805.83 10687.49,2673.31 10284.08,2673.31 10284.08,2774.19 10619.83,2774.19 "/>
   <polygon class="fil0" points="11083.65,2673.31 11003.71,2673.31 11003.71,2783.65 10928.96,2783.65 10928.96,2805.83 11083.65,2805.83 "/>
   <polygon class="fil0" points="11660.48,2805.83 12047.29,2805.83 12047.29,2673.31 11660.48,2673.31 "/>
   <polygon class="fil0" points="10687.49,2920.68 10619.83,2920.68 10619.83,2972.83 10284.08,2972.83 10284.08,3053.21 10687.49,3053.21 "/>
   <polygon class="fil0" points="11325.12,3053.21 11570.63,3053.21 11570.63,2920.68 11325.12,2920.68 "/>
   <polygon class="fil0" points="11660.48,3053.21 12047.29,3053.21 12047.29,2920.68 11660.48,2920.68 "/>
   <polygon class="fil0" points="12215.76,3053.21 12339.68,3053.21 12339.68,2920.68 12215.76,2920.68 "/>
   <polygon class="fil0" points="10928.96,3053.21 11083.66,3053.21 11083.66,2920.68 10928.96,2920.68 "/>
   <polygon class="fil0" points="11325.12,3300.57 11570.63,3300.57 11570.63,3168.04 11325.12,3168.04 "/>
   <polygon class="fil0" points="10284.08,3300.57 10687.5,3300.57 10687.5,3168.04 10284.08,3168.04 "/>
   <polygon class="fil0" points="12215.76,3300.57 12339.68,3300.57 12339.68,3168.04 12215.76,3168.04 "/>
   <polygon class="fil0" points="10928.96,3300.57 11083.66,3300.57 11083.66,3168.04 10928.96,3168.04 "/>
   <polygon class="fil0" points="11660.48,3300.57 12047.29,3300.57 12047.29,3168.04 11660.48,3168.04 "/>
   <polygon class="fil0" points="11325.12,3547.92 11570.63,3547.92 11570.63,3415.42 11325.12,3415.42 "/>
   <polygon class="fil0" points="10928.96,3547.92 11083.66,3547.92 11083.66,3415.42 10928.96,3415.42 "/>
   <polygon class="fil0" points="12215.76,3547.92 12339.68,3547.92 12339.68,3415.42 12215.76,3415.42 "/>
   <polygon class="fil0" points="10284.08,3547.92 10687.5,3547.92 10687.5,3415.42 10284.08,3415.42 "/>
   <polygon class="fil0" points="11660.48,3547.92 12047.29,3547.92 12047.29,3415.42 11660.48,3415.42 "/>
   <polygon class="fil0" points="11660.48,3795.3 12047.29,3795.3 12047.29,3662.78 11660.48,3662.78 "/>
   <polygon class="fil0" points="10928.96,3795.3 11083.66,3795.3 11083.66,3662.78 10928.96,3662.78 "/>
   <polygon class="fil0" points="11325.12,3795.3 11570.63,3795.3 11570.63,3662.78 11325.12,3662.78 "/>
   <polygon class="fil0" points="12215.76,3795.3 12339.68,3795.3 12339.68,3662.78 12215.76,3662.78 "/>
   <polygon class="fil0" points="10284.08,3795.3 10687.5,3795.3 10687.5,3662.78 10284.08,3662.78 "/>
   <polygon class="fil0" points="10284.08,4042.65 10687.5,4042.65 10687.5,3910.16 10284.08,3910.16 "/>
   <polygon class="fil0" points="11325.12,4042.65 11570.63,4042.65 11570.63,3910.16 11325.12,3910.16 "/>
   <polygon class="fil0" points="12215.76,4042.65 12339.68,4042.65 12339.68,3910.16 12215.76,3910.16 "/>
   <polygon class="fil0" points="11660.48,4042.65 12047.29,4042.65 12047.29,3910.16 11660.48,3910.16 "/>
   <polygon class="fil0" points="10928.96,4042.65 11083.66,4042.65 11083.66,3910.16 10928.96,3910.16 "/>
   <polygon class="fil0" points="11325.12,4290.04 11570.63,4290.04 11570.63,4157.51 11325.12,4157.51 "/>
   <polygon class="fil0" points="11660.48,4290.04 12047.29,4290.04 12047.29,4157.51 11660.48,4157.51 "/>
   <polygon class="fil0" points="12215.76,4290.04 12339.68,4290.04 12339.68,4157.51 12215.76,4157.51 "/>
   <polygon class="fil0" points="10284.08,4290.04 10687.5,4290.04 10687.5,4157.51 10284.08,4157.51 "/>
   <polygon class="fil0" points="10928.96,4290.04 11083.66,4290.04 11083.66,4157.51 10928.96,4157.51 "/>
   <polygon class="fil0" points="10928.96,4486.32 11083.66,4486.32 11083.66,4404.88 10928.96,4404.88 "/>
   <polygon class="fil0" points="11325.12,4486.32 11570.63,4486.32 11570.63,4404.88 11325.12,4404.88 "/>
   <polygon class="fil0" points="11660.48,4486.32 12047.29,4486.32 12047.29,4404.88 11660.48,4404.88 "/>
   <polygon class="fil0" points="12215.76,4486.32 12339.68,4486.32 12339.68,4404.88 12215.76,4404.88 "/>
   <polygon class="fil0" points="10284.08,4486.32 10687.5,4486.32 10687.5,4404.88 10284.08,4404.88 "/>
   <polygon class="fil0" points="10194.24,2920.68 10252.27,2920.68 10252.27,2805.84 10194.24,2805.84 "/>
   <polygon class="fil0" points="10194.24,2673.31 10284.08,2673.31 10284.08,2550.95 10194.24,2550.95 "/>
   <polygon class="fil0" points="10194.24,4157.51 10284.08,4157.51 10284.08,4042.65 10194.24,4042.65 "/>
   <polygon class="fil0" points="10194.24,4404.89 10284.08,4404.89 10284.08,4290.04 10194.24,4290.04 "/>
   <polygon class="fil0" points="10194.24,3910.15 10284.08,3910.15 10284.08,3795.29 10194.24,3795.29 "/>
   <polygon class="fil0" points="10194.24,3415.42 10284.08,3415.42 10284.08,3300.57 10194.24,3300.57 "/>
   <polygon class="fil0" points="10194.24,3168.04 10284.08,3168.04 10284.08,3053.21 10194.24,3053.21 "/>
   <polygon class="fil0" points="10194.24,3662.78 10284.08,3662.78 10284.08,3547.92 10194.24,3547.92 "/>
   <polygon class="fil0" points="10194.24,2171.07 10284.08,2171.07 10284.08,2056.22 10194.24,2056.22 "/>
   <polygon class="fil0" points="10194.24,1676.34 10284.08,1676.34 10284.08,1561.48 10194.24,1561.48 "/>
   <polygon class="fil0" points="10194.24,934.23 10284.08,934.23 10284.08,819.39 10194.24,819.39 "/>
   <polygon class="fil0" points="10194.24,1181.6 10284.08,1181.6 10284.08,1066.75 10194.24,1066.75 "/>
   <polygon class="fil0" points="10194.24,1428.96 10227.74,1428.96 10227.74,1314.14 10194.24,1314.14 "/>
   <polygon class="fil0" points="10194.24,1923.69 10284.08,1923.69 10284.08,1808.87 10194.24,1808.87 "/>
   <polygon class="fil0" points="10194.24,2418.42 10284.08,2418.42 10284.08,2303.61 10194.24,2303.61 "/>
   <polygon class="fil0" points="10194.24,819.41 10284.08,819.41 10284.08,754.39 10194.24,754.39 "/>
   <polygon class="fil0" points="10194.24,754.39 10284.08,754.39 10284.08,686.87 10194.24,686.87 "/>
   <polygon class="fil0" points="10194.24,1066.75 10284.08,1066.75 10284.08,934.23 10194.24,934.23 "/>
   <polygon class="fil0" points="10227.74,1279.64 10284.08,1279.64 10284.08,1181.6 10194.24,1181.6 10194.24,1314.14 10227.74,1314.14 "/>
   <polygon class="fil0" points="10284.08,1478.29 10227.74,1478.29 10227.74,1428.96 10194.24,1428.96 10194.24,1561.48 10284.08,1561.48 "/>
   <polygon class="fil0" points="10194.24,1808.87 10284.08,1808.87 10284.08,1676.34 10194.24,1676.34 "/>
   <polygon class="fil0" points="10194.24,2056.21 10284.08,2056.21 10284.08,1923.69 10194.24,1923.69 "/>
   <polygon class="fil0" points="10194.24,2303.61 10284.08,2303.61 10284.08,2171.07 10194.24,2171.07 "/>
   <polygon class="fil0" points="10194.24,2550.95 10284.08,2550.95 10284.08,2418.42 10194.24,2418.42 "/>
   <polygon class="fil0" points="10252.27,2774.19 10284.08,2774.19 10284.08,2673.31 10194.24,2673.31 10194.24,2805.83 10252.27,2805.83 "/>
   <polygon class="fil0" points="10284.08,2972.83 10252.27,2972.83 10252.27,2920.68 10194.24,2920.68 10194.24,3053.21 10284.08,3053.21 "/>
   <polygon class="fil0" points="10194.24,3300.57 10284.08,3300.57 10284.08,3168.04 10194.24,3168.04 "/>
   <polygon class="fil0" points="10194.24,3547.92 10284.08,3547.92 10284.08,3415.42 10194.24,3415.42 "/>
   <polygon class="fil0" points="10194.24,3795.3 10284.08,3795.3 10284.08,3662.78 10194.24,3662.78 "/>
   <polygon class="fil0" points="10194.24,4042.65 10284.08,4042.65 10284.08,3910.16 10194.24,3910.16 "/>
   <polygon class="fil0" points="10194.24,4290.04 10284.08,4290.04 10284.08,4157.51 10194.24,4157.51 "/>
   <polygon class="fil0" points="10194.24,4486.32 10284.08,4486.32 10284.08,4404.88 10194.24,4404.88 "/>
   <polygon class="fil0" points="10687.49,2171.07 10928.96,2171.07 10928.96,2056.22 10687.49,2056.22 "/>
   <polygon class="fil0" points="10687.49,3168.04 10928.96,3168.04 10928.96,3053.21 10687.49,3053.21 "/>
   <polygon class="fil0" points="10687.49,2673.31 10864.87,2673.31 10864.87,2550.95 10687.49,2550.95 "/>
   <polygon class="fil0" points="10687.49,2920.68 10928.96,2920.68 10928.96,2805.84 10687.49,2805.84 "/>
   <polygon class="fil0" points="10687.49,2418.42 10928.96,2418.42 10928.96,2303.61 10687.49,2303.61 "/>
   <polygon class="fil0" points="10687.49,3662.78 10928.96,3662.78 10928.96,3547.92 10687.49,3547.92 "/>
   <polygon class="fil0" points="10687.49,4404.89 10928.96,4404.89 10928.96,4290.04 10687.49,4290.04 "/>
   <polygon class="fil0" points="10687.49,3910.15 10928.96,3910.15 10928.96,3795.29 10687.49,3795.29 "/>
   <polygon class="fil0" points="10687.49,3415.42 10928.96,3415.42 10928.96,3300.57 10687.49,3300.57 "/>
   <polygon class="fil0" points="10687.49,1923.69 10928.96,1923.69 10928.96,1808.87 10687.49,1808.87 "/>
   <polygon class="fil0" points="10687.49,1428.96 10928.96,1428.96 10928.96,1314.14 10687.49,1314.14 "/>
   <polygon class="fil0" points="10687.49,934.23 10928.96,934.23 10928.96,819.39 10687.49,819.39 "/>
   <polygon class="fil0" points="10687.49,1181.6 10928.96,1181.6 10928.96,1066.75 10687.49,1066.75 "/>
   <polygon class="fil0" points="10687.49,4157.51 10928.96,4157.51 10928.96,4042.65 10687.49,4042.65 "/>
   <polygon class="fil0" points="10687.49,1676.34 10928.96,1676.34 10928.96,1561.48 10687.49,1561.48 "/>
   <polygon class="fil0" points="10687.49,819.41 10928.96,819.41 10928.96,754.39 10687.49,754.39 "/>
   <polygon class="fil0" points="10687.49,754.39 10928.96,754.39 10928.96,686.87 10687.49,686.87 "/>
   <polygon class="fil0" points="10687.49,1066.75 10928.96,1066.75 10928.96,934.23 10687.49,934.23 "/>
   <polygon class="fil0" points="10687.49,1314.14 10928.96,1314.14 10928.96,1181.59 10687.49,1181.59 "/>
   <polygon class="fil0" points="10687.49,1561.48 10928.96,1561.48 10928.96,1428.96 10687.49,1428.96 "/>
   <polygon class="fil0" points="10687.49,1808.87 10928.96,1808.87 10928.96,1676.34 10687.49,1676.34 "/>
   <polygon class="fil0" points="10687.49,2056.21 10928.96,2056.21 10928.96,1923.69 10687.49,1923.69 "/>
   <polygon class="fil0" points="10687.49,2303.61 10928.96,2303.61 10928.96,2171.07 10687.49,2171.07 "/>
   <polygon class="fil0" points="10864.87,2480.97 10928.96,2480.97 10928.96,2418.42 10687.49,2418.42 10687.49,2550.95 10864.87,2550.95 "/>
   <polygon class="fil0" points="10928.96,2783.65 10864.87,2783.65 10864.87,2673.31 10687.49,2673.31 10687.49,2805.83 10928.96,2805.83 "/>
   <polygon class="fil0" points="10687.49,3053.21 10928.96,3053.21 10928.96,2920.68 10687.49,2920.68 "/>
   <polygon class="fil0" points="10687.49,3300.57 10928.96,3300.57 10928.96,3168.04 10687.49,3168.04 "/>
   <polygon class="fil0" points="10687.49,3547.92 10928.96,3547.92 10928.96,3415.42 10687.49,3415.42 "/>
   <polygon class="fil0" points="10687.49,3795.3 10928.96,3795.3 10928.96,3662.78 10687.49,3662.78 "/>
   <polygon class="fil0" points="10687.49,4042.65 10928.96,4042.65 10928.96,3910.16 10687.49,3910.16 "/>
   <polygon class="fil0" points="10687.49,4290.04 10928.96,4290.04 10928.96,4157.51 10687.49,4157.51 "/>
   <polygon class="fil0" points="10687.49,4486.32 10928.96,4486.32 10928.96,4404.88 10687.49,4404.88 "/>
   <polygon class="fil0" points="11083.65,4404.89 11325.11,4404.89 11325.11,4290.04 11083.65,4290.04 "/>
   <polygon class="fil0" points="11083.65,3168.04 11325.11,3168.04 11325.11,3053.21 11083.65,3053.21 "/>
   <polygon class="fil0" points="11083.65,2920.68 11325.11,2920.68 11325.11,2805.84 11083.65,2805.84 "/>
   <polygon class="fil0" points="11083.65,2673.31 11325.11,2673.31 11325.11,2550.95 11083.65,2550.95 "/>
   <polygon class="fil0" points="11083.65,2418.42 11325.11,2418.42 11325.11,2303.61 11083.65,2303.61 "/>
   <polygon class="fil0" points="11083.65,4157.51 11325.11,4157.51 11325.11,4042.65 11083.65,4042.65 "/>
   <polygon class="fil0" points="11083.65,2171.07 11325.11,2171.07 11325.11,2056.22 11083.65,2056.22 "/>
   <polygon class="fil0" points="11083.65,3910.15 11325.11,3910.15 11325.11,3795.29 11083.65,3795.29 "/>
   <polygon class="fil0" points="11083.65,3415.42 11325.11,3415.42 11325.11,3300.57 11083.65,3300.57 "/>
   <polygon class="fil0" points="11083.65,3662.78 11325.11,3662.78 11325.11,3547.92 11083.65,3547.92 "/>
   <polygon class="fil0" points="11083.65,934.23 11325.11,934.23 11325.11,819.39 11083.65,819.39 "/>
   <polygon class="fil0" points="11083.65,1923.69 11325.11,1923.69 11325.11,1808.87 11083.65,1808.87 "/>
   <polygon class="fil0" points="11083.65,1181.6 11325.11,1181.6 11325.11,1066.75 11083.65,1066.75 "/>
   <polygon class="fil0" points="11083.65,1676.34 11325.11,1676.34 11325.11,1561.48 11083.65,1561.48 "/>
   <polygon class="fil0" points="11083.65,1428.96 11325.11,1428.96 11325.11,1314.14 11083.65,1314.14 "/>
   <polygon class="fil0" points="11083.65,819.41 11325.11,819.41 11325.11,754.39 11083.65,754.39 "/>
   <polygon class="fil0" points="11083.65,754.39 11325.11,754.39 11325.11,686.87 11083.65,686.87 "/>
   <polygon class="fil0" points="11083.65,1066.75 11325.11,1066.75 11325.11,934.23 11083.65,934.23 "/>
   <polygon class="fil0" points="11083.65,1314.14 11325.11,1314.14 11325.11,1181.59 11083.65,1181.59 "/>
   <polygon class="fil0" points="11083.65,1561.48 11325.11,1561.48 11325.11,1428.96 11083.65,1428.96 "/>
   <polygon class="fil0" points="11083.65,1808.87 11325.11,1808.87 11325.11,1676.34 11083.65,1676.34 "/>
   <polygon class="fil0" points="11083.65,2056.21 11325.11,2056.21 11325.11,1923.69 11083.65,1923.69 "/>
   <polygon class="fil0" points="11083.65,2303.61 11325.11,2303.61 11325.11,2171.07 11083.65,2171.07 "/>
   <polygon class="fil0" points="11083.65,2550.95 11325.11,2550.95 11325.11,2418.42 11083.65,2418.42 "/>
   <polygon class="fil0" points="11083.65,2805.83 11325.11,2805.83 11325.11,2673.31 11083.65,2673.31 "/>
   <polygon class="fil0" points="11083.65,3053.21 11325.11,3053.21 11325.11,2920.68 11083.65,2920.68 "/>
   <polygon class="fil0" points="11083.65,3300.57 11325.11,3300.57 11325.11,3168.04 11083.65,3168.04 "/>
   <polygon class="fil0" points="11083.65,3547.92 11325.11,3547.92 11325.11,3415.42 11083.65,3415.42 "/>
   <polygon class="fil0" points="11083.65,3795.3 11325.11,3795.3 11325.11,3662.78 11083.65,3662.78 "/>
   <polygon class="fil0" points="11083.65,4042.65 11325.11,4042.65 11325.11,3910.16 11083.65,3910.16 "/>
   <polygon class="fil0" points="11083.65,4290.04 11325.11,4290.04 11325.11,4157.51 11083.65,4157.51 "/>
   <polygon class="fil0" points="11083.65,4486.32 11325.11,4486.32 11325.11,4404.88 11083.65,4404.88 "/>
   <polygon class="fil0" points="11570.63,2171.07 11660.49,2171.07 11660.49,2056.22 11570.63,2056.22 "/>
   <polygon class="fil0" points="11570.63,1923.69 11660.49,1923.69 11660.49,1808.87 11570.63,1808.87 "/>
   <polygon class="fil0" points="11570.63,2418.42 11660.49,2418.42 11660.49,2303.61 11570.63,2303.61 "/>
   <polygon class="fil0" points="11570.63,4404.89 11660.49,4404.89 11660.49,4290.04 11570.63,4290.04 "/>
   <polygon class="fil0" points="11570.63,3910.15 11660.49,3910.15 11660.49,3795.29 11570.63,3795.29 "/>
   <polygon class="fil0" points="11570.63,1428.96 11660.49,1428.96 11660.49,1314.14 11570.63,1314.14 "/>
   <polygon class="fil0" points="11570.63,1676.34 11660.49,1676.34 11660.49,1561.48 11570.63,1561.48 "/>
   <polygon class="fil0" points="11570.63,3662.78 11660.49,3662.78 11660.49,3547.92 11570.63,3547.92 "/>
   <polygon class="fil0" points="11570.63,1181.6 11660.49,1181.6 11660.49,1066.75 11570.63,1066.75 "/>
   <polygon class="fil0" points="11570.63,3168.04 11660.49,3168.04 11660.49,3053.21 11570.63,3053.21 "/>
   <polygon class="fil0" points="11570.63,4157.51 11660.49,4157.51 11660.49,4042.65 11570.63,4042.65 "/>
   <polygon class="fil0" points="11570.63,934.23 11660.49,934.23 11660.49,819.39 11570.63,819.39 "/>
   <polygon class="fil0" points="11570.63,2920.68 11660.49,2920.68 11660.49,2805.84 11570.63,2805.84 "/>
   <polygon class="fil0" points="11570.63,3415.42 11660.49,3415.42 11660.49,3300.57 11570.63,3300.57 "/>
   <polygon class="fil0" points="11570.63,2673.31 11660.49,2673.31 11660.49,2550.95 11570.63,2550.95 "/>
   <polygon class="fil0" points="11570.63,819.41 11660.49,819.41 11660.49,754.39 11570.63,754.39 "/>
   <polygon class="fil0" points="11570.63,754.39 11660.49,754.39 11660.49,686.87 11570.63,686.87 "/>
   <polygon class="fil0" points="11570.63,1066.75 11660.49,1066.75 11660.49,934.23 11570.63,934.23 "/>
   <polygon class="fil0" points="11570.63,1314.14 11660.49,1314.14 11660.49,1181.59 11570.63,1181.59 "/>
   <polygon class="fil0" points="11570.63,1561.48 11660.49,1561.48 11660.49,1428.96 11570.63,1428.96 "/>
   <polygon class="fil0" points="11570.63,1808.87 11660.49,1808.87 11660.49,1676.34 11570.63,1676.34 "/>
   <polygon class="fil0" points="11570.63,2056.21 11660.49,2056.21 11660.49,1923.69 11570.63,1923.69 "/>
   <polygon class="fil0" points="11570.63,2303.61 11660.49,2303.61 11660.49,2171.07 11570.63,2171.07 "/>
   <polygon class="fil0" points="11570.63,2550.95 11660.49,2550.95 11660.49,2418.42 11570.63,2418.42 "/>
   <polygon class="fil0" points="11570.63,2805.83 11660.49,2805.83 11660.49,2673.31 11570.63,2673.31 "/>
   <polygon class="fil0" points="11570.63,3053.21 11660.49,3053.21 11660.49,2920.68 11570.63,2920.68 "/>
   <polygon class="fil0" points="11570.63,3300.57 11660.49,3300.57 11660.49,3168.04 11570.63,3168.04 "/>
   <polygon class="fil0" points="11570.63,3547.92 11660.49,3547.92 11660.49,3415.42 11570.63,3415.42 "/>
   <polygon class="fil0" points="11570.63,3795.3 11660.49,3795.3 11660.49,3662.78 11570.63,3662.78 "/>
   <polygon class="fil0" points="11570.63,4042.65 11660.49,4042.65 11660.49,3910.16 11570.63,3910.16 "/>
   <polygon class="fil0" points="11570.63,4290.04 11660.49,4290.04 11660.49,4157.51 11570.63,4157.51 "/>
   <polygon class="fil0" points="11570.63,4486.32 11660.49,4486.32 11660.49,4404.88 11570.63,4404.88 "/>
   <polygon class="fil0" points="12047.29,3415.42 12215.76,3415.42 12215.76,3300.57 12047.29,3300.57 "/>
   <polygon class="fil0" points="12047.29,2920.68 12215.76,2920.68 12215.76,2805.84 12047.29,2805.84 "/>
   <polygon class="fil0" points="12047.29,934.23 12215.76,934.23 12215.76,819.39 12047.29,819.39 "/>
   <polygon class="fil0" points="12047.29,3168.04 12215.76,3168.04 12215.76,3053.21 12047.29,3053.21 "/>
   <polygon class="fil0" points="12047.29,2171.07 12215.76,2171.07 12215.76,2056.22 12047.29,2056.22 "/>
   <polygon class="fil0" points="12047.29,2673.31 12215.76,2673.31 12215.76,2550.95 12047.29,2550.95 "/>
   <polygon class="fil0" points="12047.29,4157.51 12215.76,4157.51 12215.76,4042.65 12047.29,4042.65 "/>
   <polygon class="fil0" points="12047.29,1923.69 12215.76,1923.69 12215.76,1808.87 12047.29,1808.87 "/>
   <polygon class="fil0" points="12047.29,2418.42 12215.76,2418.42 12215.76,2303.61 12047.29,2303.61 "/>
   <polygon class="fil0" points="12047.29,4404.89 12215.76,4404.89 12215.76,4290.04 12047.29,4290.04 "/>
   <polygon class="fil0" points="12047.29,1181.6 12215.76,1181.6 12215.76,1066.75 12047.29,1066.75 "/>
   <polygon class="fil0" points="12047.29,1428.96 12215.76,1428.96 12215.76,1314.14 12047.29,1314.14 "/>
   <polygon class="fil0" points="12047.29,3910.15 12215.76,3910.15 12215.76,3795.29 12047.29,3795.29 "/>
   <polygon class="fil0" points="12047.29,3662.78 12215.76,3662.78 12215.76,3547.92 12047.29,3547.92 "/>
   <polygon class="fil0" points="12047.29,1676.34 12215.76,1676.34 12215.76,1561.48 12047.29,1561.48 "/>
   <polygon class="fil0" points="12047.29,819.41 12215.76,819.41 12215.76,754.39 12047.29,754.39 "/>
   <polygon class="fil0" points="12047.29,754.39 12215.76,754.39 12215.76,686.87 12047.29,686.87 "/>
   <polygon class="fil0" points="12047.29,1066.75 12215.76,1066.75 12215.76,934.23 12047.29,934.23 "/>
   <polygon class="fil0" points="12047.29,1314.14 12215.76,1314.14 12215.76,1181.59 12047.29,1181.59 "/>
   <polygon class="fil0" points="12047.29,1561.48 12215.76,1561.48 12215.76,1428.96 12047.29,1428.96 "/>
   <polygon class="fil0" points="12047.29,1808.87 12215.76,1808.87 12215.76,1676.34 12047.29,1676.34 "/>
   <polygon class="fil0" points="12047.29,2056.21 12215.76,2056.21 12215.76,1923.69 12047.29,1923.69 "/>
   <polygon class="fil0" points="12047.29,2303.61 12215.76,2303.61 12215.76,2171.07 12047.29,2171.07 "/>
   <polygon class="fil0" points="12047.29,2550.95 12215.76,2550.95 12215.76,2418.42 12047.29,2418.42 "/>
   <polygon class="fil0" points="12047.29,2805.83 12215.76,2805.83 12215.76,2673.31 12047.29,2673.31 "/>
   <polygon class="fil0" points="12047.29,3053.21 12215.76,3053.21 12215.76,2920.68 12047.29,2920.68 "/>
   <polygon class="fil0" points="12047.29,3300.57 12215.76,3300.57 12215.76,3168.04 12047.29,3168.04 "/>
   <polygon class="fil0" points="12047.29,3547.92 12215.76,3547.92 12215.76,3415.42 12047.29,3415.42 "/>
   <polygon class="fil0" points="12047.29,3795.3 12215.76,3795.3 12215.76,3662.78 12047.29,3662.78 "/>
   <polygon class="fil0" points="12047.29,4042.65 12215.76,4042.65 12215.76,3910.16 12047.29,3910.16 "/>
   <polygon class="fil0" points="12047.29,4290.04 12215.76,4290.04 12215.76,4157.51 12047.29,4157.51 "/>
   <polygon class="fil0" points="12047.29,4486.32 12215.76,4486.32 12215.76,4404.88 12047.29,4404.88 "/>
   <polygon class="fil0" points="12339.68,4157.51 12518.37,4157.51 12518.37,4042.65 12339.68,4042.65 "/>
   <polygon class="fil0" points="12339.68,934.23 12518.37,934.23 12518.37,819.39 12339.68,819.39 "/>
   <polygon class="fil0" points="12339.68,1676.34 12518.37,1676.34 12518.37,1561.48 12339.68,1561.48 "/>
   <polygon class="fil0" points="12339.68,3415.42 12518.37,3415.42 12518.37,3300.57 12339.68,3300.57 "/>
   <polygon class="fil0" points="12339.68,2920.68 12518.37,2920.68 12518.37,2805.84 12339.68,2805.84 "/>
   <polygon class="fil0" points="12339.68,4404.89 12518.37,4404.89 12518.37,4290.04 12339.68,4290.04 "/>
   <polygon class="fil0" points="12339.68,3662.78 12518.37,3662.78 12518.37,3547.92 12339.68,3547.92 "/>
   <polygon class="fil0" points="12339.68,1181.6 12518.37,1181.6 12518.37,1066.75 12339.68,1066.75 "/>
   <polygon class="fil0" points="12339.68,1428.96 12518.37,1428.96 12518.37,1314.14 12339.68,1314.14 "/>
   <polygon class="fil0" points="12339.68,3168.04 12518.37,3168.04 12518.37,3053.21 12339.68,3053.21 "/>
   <polygon class="fil0" points="12339.68,1923.69 12518.37,1923.69 12518.37,1808.87 12339.68,1808.87 "/>
   <polygon class="fil0" points="12339.68,2171.07 12518.37,2171.07 12518.37,2056.22 12339.68,2056.22 "/>
   <polygon class="fil0" points="12339.68,2418.42 12518.37,2418.42 12518.37,2303.61 12339.68,2303.61 "/>
   <polygon class="fil0" points="12339.68,3910.15 12518.37,3910.15 12518.37,3795.29 12339.68,3795.29 "/>
   <polygon class="fil0" points="12339.68,2673.31 12518.37,2673.31 12518.37,2550.95 12339.68,2550.95 "/>
   <polygon class="fil0" points="12339.68,819.41 12518.37,819.41 12518.37,754.39 12339.68,754.39 "/>
   <polygon class="fil0" points="12339.68,754.39 12518.37,754.39 12518.37,686.87 12339.68,686.87 "/>
   <polygon class="fil0" points="12339.68,1066.75 12518.37,1066.75 12518.37,934.23 12339.68,934.23 "/>
   <polygon class="fil0" points="12339.68,1314.14 12518.37,1314.14 12518.37,1181.59 12339.68,1181.59 "/>
   <polygon class="fil0" points="12339.68,1561.48 12518.37,1561.48 12518.37,1428.96 12339.68,1428.96 "/>
   <polygon class="fil0" points="12339.68,1808.87 12518.37,1808.87 12518.37,1676.34 12339.68,1676.34 "/>
   <polygon class="fil0" points="12339.68,2056.21 12518.37,2056.21 12518.37,1923.69 12339.68,1923.69 "/>
   <polygon class="fil0" points="12339.68,2303.61 12518.37,2303.61 12518.37,2171.07 12339.68,2171.07 "/>
   <polygon class="fil0" points="12339.68,2550.95 12518.37,2550.95 12518.37,2418.42 12339.68,2418.42 "/>
   <polygon class="fil0" points="12339.68,2805.83 12518.37,2805.83 12518.37,2673.31 12339.68,2673.31 "/>
   <polygon class="fil0" points="12339.68,3053.21 12518.37,3053.21 12518.37,2920.68 12339.68,2920.68 "/>
   <polygon class="fil0" points="12339.68,3300.57 12518.37,3300.57 12518.37,3168.04 12339.68,3168.04 "/>
   <polygon class="fil0" points="12339.68,3547.92 12518.37,3547.92 12518.37,3415.42 12339.68,3415.42 "/>
   <polygon class="fil0" points="12339.68,3795.3 12518.37,3795.3 12518.37,3662.78 12339.68,3662.78 "/>
   <polygon class="fil0" points="12339.68,4042.65 12518.37,4042.65 12518.37,3910.16 12339.68,3910.16 "/>
   <polygon class="fil0" points="12339.68,4290.04 12518.37,4290.04 12518.37,4157.51 12339.68,4157.51 "/>
   <polygon class="fil0" points="12339.68,4486.32 12518.37,4486.32 12518.37,4404.88 12339.68,4404.88 "/>
   <polygon class="fil0" points="10284.08,1314.14 10578.98,1314.14 10578.98,1279.64 10284.08,1279.64 "/>
   <polygon class="fil0" points="10284.08,1478.29 10578.98,1478.29 10578.98,1428.96 10284.08,1428.96 "/>
   <polygon class="fil0" points="10227.74,1428.96 10284.07,1428.96 10284.07,1314.14 10227.74,1314.14 "/>
   <polygon class="fil0" points="10227.74,1314.14 10284.07,1314.14 10284.07,1279.64 10227.74,1279.64 "/>
   <polygon class="fil0" points="10227.74,1478.29 10284.07,1478.29 10284.07,1428.96 10227.74,1428.96 "/>
   <polygon class="fil0" points="10928.96,2673.31 11003.71,2673.31 11003.71,2550.95 10928.96,2550.95 "/>
   <polygon class="fil0" points="10928.96,2550.95 11003.71,2550.95 11003.71,2480.97 10928.96,2480.97 "/>
   <polygon class="fil0" points="10928.96,2783.65 11003.71,2783.65 11003.71,2673.31 10928.96,2673.31 "/>
   <polygon class="fil0" points="10864.87,2673.31 10928.96,2673.31 10928.96,2550.95 10864.87,2550.95 "/>
   <polygon class="fil0" points="10864.87,2550.95 10928.96,2550.95 10928.96,2480.97 10864.87,2480.97 "/>
   <polygon class="fil0" points="10864.87,2783.65 10928.96,2783.65 10928.96,2673.31 10864.87,2673.31 "/>
   <polygon class="fil0" points="10284.08,2805.83 10619.84,2805.83 10619.84,2774.18 10284.08,2774.18 "/>
   <polygon class="fil0" points="10284.08,2972.83 10619.84,2972.83 10619.84,2920.68 10284.08,2920.68 "/>
   <polygon class="fil0" points="10252.27,2920.68 10284.08,2920.68 10284.08,2805.84 10252.27,2805.84 "/>
   <polygon class="fil0" points="10252.27,2805.83 10284.08,2805.83 10284.08,2774.18 10252.27,2774.18 "/>
   <polygon class="fil0" points="10252.27,2972.83 10284.08,2972.83 10284.08,2920.68 10252.27,2920.68 "/>
   <polygon class="fil0" points="11796,1561.48 12008.36,1561.48 12008.36,1525.58 11796,1525.58 "/>
   <polygon class="fil0" points="11796,1780.99 12008.36,1780.99 12008.36,1676.34 11796,1676.34 "/>
   <polygon class="fil0" points="10397.05,727.28 12277.98,727.28 12277.98,553.59 10397.05,553.59 "/>
   <polygon class="fil0" points="10666.87,712.82 11907.09,712.82 11907.09,375.11 10666.87,375.11 "/>
   <polygon class="fil0" points="12758.22,4579.27 14920.66,4579.27 14920.66,4232.58 12758.22,4232.58 "/>
   <polygon class="fil0" points="12995.39,4393.54 14655.59,4393.54 14655.59,4009.72 12995.39,4009.72 "/>
   <polygon class="fil0" points="13409.27,4364.65 14441.66,4364.65 14441.66,3762.1 13409.27,3762.1 "/>
   <path class="fil0" d="M9023.53 4533.88l-1831.15 0c-97.5,0 -176.82,-70.41 -176.82,-156.95 0,-86.51 79.32,-156.92 176.82,-156.92l1831.15 0c97.52,0 176.85,70.41 176.85,156.92 0,86.54 -79.33,156.95 -176.85,156.95zm0 -405.02l-1831.15 0c-153.71,0 -279.49,111.63 -279.49,248.07l0 0c0,136.45 125.78,248.07 279.49,248.07l1831.15 0c153.75,0 279.53,-111.62 279.53,-248.07l0 0c0,-136.44 -125.78,-248.07 -279.53,-248.07z"/>
   <path class="fil0" d="M7348.8 4376.55c0,-69.88 -63.83,-126.56 -142.6,-126.56 -78.74,0 -142.61,56.67 -142.61,126.56 0,69.91 63.88,126.59 142.61,126.59 78.77,0 142.6,-56.68 142.6,-126.59z"/>
   <path class="fil0" d="M7257.54 4376.55c0,-25.15 -22.97,-45.55 -51.34,-45.55 -28.36,0 -51.34,20.4 -51.34,45.55 0,25.2 22.98,45.56 51.34,45.56 28.37,0 51.34,-20.37 51.34,-45.56z"/>
   <path class="fil0" d="M7647.36 4376.55c0,-69.88 -63.88,-126.56 -142.6,-126.56 -78.77,0 -142.65,56.67 -142.65,126.56 0,69.91 63.88,126.59 142.65,126.59 78.73,0 142.6,-56.68 142.6,-126.59z"/>
   <path class="fil0" d="M7556.09 4376.55c0,-25.15 -23,-45.55 -51.33,-45.55 -28.38,0 -51.34,20.4 -51.34,45.55 0,25.2 22.96,45.56 51.34,45.56 28.34,0 51.33,-20.37 51.33,-45.56z"/>
   <path class="fil0" d="M7945.89 4376.55c0,-69.88 -63.84,-126.56 -142.6,-126.56 -78.77,0 -142.61,56.67 -142.61,126.56 0,69.91 63.84,126.59 142.61,126.59 78.76,0 142.6,-56.68 142.6,-126.59z"/>
   <path class="fil0" d="M7854.61 4376.55c0,-25.15 -22.98,-45.55 -51.33,-45.55 -28.36,0 -51.35,20.4 -51.35,45.55 0,25.2 23,45.56 51.35,45.56 28.35,0 51.33,-20.37 51.33,-45.56z"/>
   <path class="fil0" d="M8244.41 4376.55c0,-69.88 -63.84,-126.56 -142.61,-126.56 -78.76,0 -142.6,56.67 -142.6,126.56 0,69.91 63.84,126.59 142.6,126.59 78.77,0 142.61,-56.68 142.61,-126.59z"/>
   <path class="fil0" d="M8153.14 4376.55c0,-25.15 -23,-45.55 -51.34,-45.55 -28.35,0 -51.33,20.4 -51.33,45.55 0,25.2 22.98,45.56 51.33,45.56 28.35,0 51.34,-20.37 51.34,-45.56z"/>
   <path class="fil0" d="M8542.97 4376.55c0,-69.88 -63.88,-126.56 -142.64,-126.56 -78.74,0 -142.61,56.67 -142.61,126.56 0,69.91 63.88,126.59 142.61,126.59 78.76,0 142.64,-56.68 142.64,-126.59z"/>
   <path class="fil0" d="M8451.67 4376.55c0,-25.15 -22.96,-45.55 -51.33,-45.55 -28.35,0 -51.34,20.4 -51.34,45.55 0,25.2 23,45.56 51.34,45.56 28.37,0 51.33,-20.37 51.33,-45.56z"/>
   <path class="fil0" d="M8841.5 4376.55c0,-69.88 -63.86,-126.56 -142.61,-126.56 -78.77,0 -142.6,56.67 -142.6,126.56 0,69.91 63.83,126.59 142.6,126.59 78.75,0 142.61,-56.68 142.61,-126.59z"/>
   <path class="fil0" d="M8750.23 4376.55c0,-25.15 -23,-45.55 -51.34,-45.55 -28.38,0 -51.34,20.4 -51.34,45.55 0,25.2 22.96,45.56 51.34,45.56 28.35,0 51.34,-20.37 51.34,-45.56z"/>
   <path class="fil0" d="M9140.02 4376.55c0,-69.88 -63.83,-126.56 -142.6,-126.56 -78.77,0 -142.61,56.67 -142.61,126.56 0,69.91 63.84,126.59 142.61,126.59 78.77,0 142.6,-56.68 142.6,-126.59z"/>
   <path class="fil0" d="M9048.76 4376.55c0,-25.15 -23,-45.55 -51.34,-45.55 -28.35,0 -51.33,20.4 -51.33,45.55 0,25.2 22.98,45.56 51.33,45.56 28.35,0 51.34,-20.37 51.34,-45.56z"/>
   <path class="fil0" d="M5629.38 3741.67l-2.68 -256.09 13.25 -0.1 -0.2 -19.82 6.56 -0.04 -0.25 -26.67 -6.56 0.05 -1.06 -107.89 6.56 -0.07 -0.28 -26.66 -6.52 0.05 -1.2 -120.63 2.4 0c15.02,15.14 28.36,35.52 32.09,61.98 5.49,38.66 38.2,231.95 65.99,395.22l-108.08 100.66zm149.08 138.88l-46.68 41.54 -71.55 -97.47 93.38 -89.07c14.38,84.19 24.85,145 24.85,145zm39.53 -804.68l301.84 -24.09 0.93 11.14 45.59 -3.24 0.42 5.12 29.97 -1.96 -0.42 -5.3 160.88 -11.39 0.56 6.79 29.97 -1.93 -0.59 -6.98 138.76 -9.84 0.54 6.45 29.97 -1.93 -0.57 -6.64 72.11 -5.1c-9.65,10.73 -30.58,21.05 -51.26,29.44 -10.88,1.28 -22.04,2.94 -33.54,5.12l-575.35 140.41 -85.22 -18.8 -40.93 -35.11 -23.65 -72.16zm49.44 762.15l49.92 -503.98 692.26 -41.67 960.4 604.03 78.29 -315.3 -557.51 -298.05c0,0 -360.55,-239.63 -376.24,-270.65 -15.71,-31.03 -27.99,-37.67 -47.85,-36.6 -10.77,0.57 -17.44,5.4 -22.57,13.87l-91.22 6.46 -0.42 -4.98 -29.97 1.94 0.42 5.18 -138.73 9.83 -0.39 -4.63 -29.97 1.94 0.39 4.83 -160.88 11.38 -0.51 -6.29 -29.99 1.94 0.54 6.49 -45.56 3.22 1.05 13.02 -304.67 24.32 -6.58 -20.08c0,0 -80.16,-70.67 -235.1,62.33l13.8 42.12c0,0 3.8,1.41 9.77,4.36l0.02 4.43 -6.56 0.05 0.28 26.66 6.52 -0.04 1.2 120.62 -6.56 0.05 0.24 26.66 6.56 -0.05 1.07 107.9 -6.57 0.05 0.25 26.66 6.56 -0.04 0.2 19.78 14.03 -0.1 2.82 268.29 -57.25 53.31c0,0 -13.78,56.38 33.79,47.81l116.74 165.23 1.4 142c0,0 70.38,102.58 178.74,51.77 108.35,-50.82 391.46,-241.39 391.46,-241.39 0,0 -298.19,-40.46 -413.65,-134.66z"/>
   <polygon class="fil0" points="7699.79,4161.64 8557.73,4161.64 8557.73,3903.05 7699.79,3903.05 "/>
   <path class="fil0" d="M8687.5 3468.59l-389.32 0c-56.67,0 -102.63,-40.79 -102.63,-91.09l0 -334.92 -299.11 0c-223.93,0 -493.1,118.2 -496.22,435.6l1.44 2.31c-0.95,6.71 -1.44,14.26 -1.44,22.75l0 261.31c0,134.87 123.19,244.16 275.14,244.16l1012.14 0c151.95,0 275.14,-109.3 275.14,-244.16l0 -51.8c0,-134.85 -123.19,-244.17 -275.14,-244.17z"/>
   <path class="fil0" d="M8132.81 3400.38l0 -302.12 -236.36 0c-189.55,0 -410.2,91.22 -431.62,344.66l620.06 0c26.45,0 47.92,-19.03 47.92,-42.54z"/>
   <path class="fil0" d="M19951.94 605.23l0 -102.27 -75.66 0 0 -62.92 1135.4 165.19 -1059.74 0zm-45.15 2770.34l-134.85 -98.2 134.85 -100.61 0 198.81zm0 119.06l-184.21 137.46 -192.22 -139.96 376.42 0 0 2.5zm0 271.62l-134.85 -98.21 134.85 -100.63 0 198.84zm0 386.37l-134.85 -98.21 134.85 -100.63 0 198.84zm-184.21 -134.14l-186.34 -135.68 368.18 0 -181.84 135.68zm0.47 -313.98l168.39 122.62 -332.7 0 164.31 -122.62zm-206.03 -150.01l156.67 114.08 -156.67 116.9 0 -230.99zm0.89 -715.86l156.7 114.1 -136.38 101.76 -20.33 0 0 -215.86zm-352.2 -2233.39c108.12,-48.74 248.95,-111.02 380,-168.43l0 66.16 -75.67 0 0 102.27 -304.33 0zm742 524.6l-134.88 -98.21 134.88 -100.62 0 198.83zm-183.77 1858.83l90.41 65.82 -178.6 0 88.2 -65.82zm183.77 -137.09l0 198.82 -134.88 -98.21 134.88 -100.61zm-2.4 -70.99l-181.83 135.68 -186.34 -135.68 368.17 0zm-230.72 -214.25l-156.68 116.9 0 -230.99 156.68 114.08zm0.02 -390.66l-156.7 116.92 0 -231.02 156.7 114.1zm0 -386.38l-156.7 116.9 0 -231.02 156.7 114.11zm0 -370.75l-156.7 116.9 0 -230.99 156.7 114.08zm-156.7 -269.47l0 -231.01 156.7 114.08 -156.7 116.93zm41.74 41.64l164.32 -122.61 168.37 122.61 -332.69 0zm163.83 191.39l-186.34 -135.7 368.17 0 -181.83 135.7zm49.35 35.93l134.88 -100.64 0 198.84 -134.88 -98.2zm0 370.74l134.88 -100.64 0 198.85 -134.88 -98.21zm0 386.4l134.88 -100.64 0 198.83 -134.88 -98.19zm-48.89 36.45l168.4 122.61 -332.71 0 164.31 -122.61zm181.37 -208.08l-181.83 135.68 -186.34 -135.68 368.17 0zm-181.34 -178.32l168.37 122.63 -332.69 0 164.32 -122.63zm-164.34 -248.13l164.31 -122.6 168.4 122.6 -332.71 0zm324.7 55.7l-160.85 120.02 -164.86 -120.02 325.7 0zm-160.85 897.07l-192.2 -139.92 376.42 0 0 2.47 -184.23 137.45zm168.86 195.03l-332.71 0 164.31 -122.62 168.4 122.62zm-119.51 -159.07l134.88 -100.64 0 198.85 -134.88 -98.21zm-50.25 675.62l-186.34 -135.68 368.18 0 -181.84 135.68zm0.47 72.41l168.39 122.6 -332.7 0 164.31 -122.6zm-206.03 -150.05l156.67 114.11 -156.67 116.9 0 -231.02zm387.6 -2303.3l-181.14 135.18 -185.64 -135.18 366.78 0zm4384.18 -193.27l-2578.39 0 -102.74 -62 -208.07 0 -1523.33 -221.65 0 -73.82 -118.23 0 0 -309.76 -91.82 0 0 309.76 -120.52 0 0 64.83c-176.23,77.01 -353.47,155.34 -470.49,209.29l-67.82 -99.84 -342.02 0 0 121.2 -111.61 0 0 90.88 -275.4 0 0 86.27 788.44 0 0 -0.77 343.5 0 0 2272.87 -0.89 0 0 1104.64 107.59 0 0 -218.26 156.67 114.1 -139.59 104.15 97.55 0 91.4 -68.22 93.67 68.22 197.66 0 0 -1102.24 0.9 0 0 -2275.27 4518.35 0 -244.82 -114.38z"/>
   <polygon class="fil0" points="18840.94,4802.13 20640.66,4802.13 20640.66,4096.39 18840.94,4096.39 "/>
   <polygon class="fil0" points="23770.38,3027.46 23844.77,3027.46 23844.77,699.78 23770.38,699.78 "/>
   <polygon class="fil0" points="22738,3073.74 24914.38,3073.74 24914.38,2589.97 22738,2589.97 "/>
   <path class="fil0" d="M26611.75 4453.35l0 212.59 -2232.18 0 0 -212.59 -17662.43 0c-24.08,117.35 -139.63,206.39 -278.83,206.39 -108.35,0 -202.43,-53.93 -250.19,-133.17 -15.25,3.29 -31.06,5.22 -47.45,5.22 -21.15,0 -41.51,-2.97 -60.66,-8.36 -2.45,198.72 -184.51,359.17 -409.02,359.17 -186.08,0 -342.92,-110.34 -392.59,-261.26 -54.48,53.86 -133.29,87.93 -221.27,87.93 -161.24,0 -292.21,-113.88 -297.16,-255.93l-4759.98 0 0 624.89 35688.97 0 0 -624.89 -9077.22 0z"/>
   <path class="fil0" d="M6554.59 4644.27c0,-74.67 -171.27,-135.18 -382.49,-135.18 -211.25,0 -382.52,60.52 -382.52,135.18 0,74.62 171.27,135.15 382.52,135.15 211.22,0 382.49,-60.53 382.49,-135.15z"/>
   <path class="fil0" d="M6089.54 4829.99c0,-107.72 -181.14,-195.01 -404.59,-195.01 -223.44,0 -404.6,87.29 -404.6,195.01 0,107.69 181.15,195.01 404.6,195.01 223.44,0 404.59,-87.32 404.59,-195.01z"/>
   <polygon class="fil0" points="1844.21,828.26 2059.78,828.26 2059.78,577.05 1844.21,577.05 "/>
   <polygon class="fil0" points="2257.09,828.26 2472.66,828.26 2472.66,577.05 2257.09,577.05 "/>
   <polygon class="fil0" points="2669.95,828.26 2885.56,828.26 2885.56,577.05 2669.95,577.05 "/>
   <polygon class="fil0" points="3495.73,828.26 3711.3,828.26 3711.3,577.05 3495.73,577.05 "/>
   <polygon class="fil0" points="1844.21,1326.98 2059.78,1326.98 2059.78,1075.77 1844.21,1075.77 "/>
   <polygon class="fil0" points="2257.09,1326.98 2472.66,1326.98 2472.66,1075.77 2257.09,1075.77 "/>
   <polygon class="fil0" points="2669.95,1326.98 2885.56,1326.98 2885.56,1075.77 2669.95,1075.77 "/>
   <polygon class="fil0" points="3082.85,1326.98 3298.43,1326.98 3298.43,1075.77 3082.85,1075.77 "/>
   <polygon class="fil0" points="3495.73,1326.98 3711.3,1326.98 3711.3,1075.77 3495.73,1075.77 "/>
   <polygon class="fil0" points="1844.21,1825.7 2059.78,1825.7 2059.78,1574.49 1844.21,1574.49 "/>
   <polygon class="fil0" points="2257.09,1825.7 2472.66,1825.7 2472.66,1574.49 2257.09,1574.49 "/>
   <polygon class="fil0" points="3082.85,1825.7 3298.43,1825.7 3298.43,1574.49 3082.85,1574.49 "/>
   <polygon class="fil0" points="3495.73,1825.7 3711.3,1825.7 3711.3,1574.49 3495.73,1574.49 "/>
   <polygon class="fil0" points="2257.09,2324.42 2472.66,2324.42 2472.66,2073.21 2257.09,2073.21 "/>
   <polygon class="fil0" points="2669.95,2324.42 2885.56,2324.42 2885.56,2073.21 2669.95,2073.21 "/>
   <polygon class="fil0" points="3082.85,2324.42 3298.43,2324.42 3298.43,2073.21 3082.85,2073.21 "/>
   <polygon class="fil0" points="3495.73,2324.42 3711.3,2324.42 3711.3,2073.21 3495.73,2073.21 "/>
   <polygon class="fil0" points="1844.21,2823.15 2059.78,2823.15 2059.78,2571.93 1844.21,2571.93 "/>
   <polygon class="fil0" points="2669.95,2823.15 2885.56,2823.15 2885.56,2571.93 2669.95,2571.93 "/>
   <polygon class="fil0" points="3082.85,2823.15 3298.43,2823.15 3298.43,2571.93 3082.85,2571.93 "/>
   <polygon class="fil0" points="1844.21,3321.87 2059.78,3321.87 2059.78,3070.63 1844.21,3070.63 "/>
   <polygon class="fil0" points="2257.09,3321.87 2472.66,3321.87 2472.66,3070.63 2257.09,3070.63 "/>
   <polygon class="fil0" points="2669.95,3321.87 2885.56,3321.87 2885.56,3070.63 2669.95,3070.63 "/>
   <polygon class="fil0" points="3082.85,3321.87 3298.43,3321.87 3298.43,3070.63 3082.85,3070.63 "/>
   <polygon class="fil0" points="3495.73,3321.87 3711.3,3321.87 3711.3,3070.63 3495.73,3070.63 "/>
   <polygon class="fil0" points="1844.21,3820.59 2059.78,3820.59 2059.78,3569.34 1844.21,3569.34 "/>
   <polygon class="fil0" points="2257.09,3820.59 2472.66,3820.59 2472.66,3569.34 2257.09,3569.34 "/>
   <polygon class="fil0" points="2669.95,3820.59 2885.56,3820.59 2885.56,3569.34 2669.95,3569.34 "/>
   <polygon class="fil0" points="3495.73,3820.59 3711.3,3820.59 3711.3,3569.34 3495.73,3569.34 "/>
   <polygon class="fil0" points="1844.21,4319.31 2059.78,4319.31 2059.78,4068.06 1844.21,4068.06 "/>
   <polygon class="fil0" points="3495.73,4319.31 3711.3,4319.31 3711.3,4068.06 3495.73,4068.06 "/>
   <polygon class="fil0" points="1188.03,4711.32 1336.84,4711.32 1336.84,353.09 1188.03,353.09 "/>
   <polygon class="fil0" points="4089.88,4744.33 4257.3,4744.33 4257.3,1079.45 4089.88,1079.45 "/>
   <polygon class="fil0" points="4573.51,4661.8 4647.93,4661.8 4647.93,1789.33 4573.51,1789.33 "/>
   <polygon class="fil0" points="118.43,4703.08 1178.71,4703.08 1178.71,4282.11 118.43,4282.11 "/>
   <polygon class="fil0" points="34270.96,4706.79 35526.58,4706.79 35526.58,4013.44 34270.96,4013.44 "/>
  </g>
 </g>
</svg>
