<?xml version="1.0" encoding="UTF-8"?>
<!DOCTYPE svg PUBLIC "-//W3C//DTD SVG 1.1//EN" "http://www.w3.org/Graphics/SVG/1.1/DTD/svg11.dtd">
<!-- Creator: CorelDRAW 2017 -->
<svg preserveAspectRatio="none" xmlns="http://www.w3.org/2000/svg" xml:space="preserve" width="326.072mm" height="46.3973mm" version="1.1" style="shape-rendering:geometricPrecision; text-rendering:geometricPrecision; image-rendering:optimizeQuality; fill-rule:evenodd; clip-rule:evenodd"
viewBox="0 0 32854.56 4674.92"
 xmlns:xlink="http://www.w3.org/1999/xlink">
 <defs>
  <style type="text/css">
   <![CDATA[
    .fil1 {fill:none;fill-rule:nonzero}
    .fil0 {fill:#555555;fill-rule:nonzero}
   ]]>
  </style>
 </defs>
 <g id="Camada_x0020_1">
  <metadata id="CorelCorpID_0Corel-Layer"/>
  <g id="_2361902777104">
   <polygon class="fil0" points="21052.41,2495.99 20983.63,2495.99 21885.04,1740.23 21953.8,1740.23 "/>
   <polygon class="fil0" points="22781.01,2495.99 22849.8,2495.99 21948.38,1740.23 21879.6,1740.23 "/>
   <path class="fil0" d="M15468.05 4064.01c-44.38,0 -80.34,-31.92 -80.34,-71.31 0,-39.37 35.96,-71.29 80.34,-71.29 44.36,0 80.32,31.92 80.32,71.29 0,39.39 -35.96,71.31 -80.32,71.31zm244.61 -105.43l-13.05 -43.72c-1.56,-5.18 -7.03,-8.67 -13.08,-8.3l-8.98 0.57c-5.78,-11.15 -12.68,-21.75 -20.52,-31.69l5.11 -6.63c3.4,-4.43 2.77,-10.4 -1.49,-14.21l-35.93 -32.07c-4.27,-3.81 -10.97,-4.38 -15.98,-1.37l-7.5 4.49c-11.17,-7.05 -23.09,-13.2 -35.61,-18.4l0.7 -7.98c0.46,-5.34 -3.44,-10.24 -9.27,-11.65l-49.19 -11.81c-5.85,-1.41 -12,1.08 -14.65,5.88l-3.95 7.22c-6.99,-0.57 -14.08,-0.87 -21.22,-0.87 -6.72,0 -13.38,0.27 -19.95,0.78l-3.91 -7.25c-2.62,-4.84 -8.76,-7.34 -14.62,-5.96l-49.23 11.58c-5.86,1.39 -9.79,6.25 -9.35,11.61l0.6 7.98c-12.52,5.12 -24.47,11.23 -35.7,18.21l-7.45 -4.53c-5.01,-3.01 -11.74,-2.47 -16.03,1.32l-36.11 31.89c-4.29,3.79 -4.97,9.74 -1.57,14.18l5.06 6.66c-7.91,9.91 -14.87,20.47 -20.73,31.6l-8.96 -0.61c-6.05,-0.41 -11.57,3.05 -13.13,8.22l-13.34 43.66c-1.58,5.2 1.21,10.65 6.66,13l8.14 3.51c-0.64,6.21 -1,12.49 -1,18.83 0,5.96 0.3,11.87 0.88,17.71l-8.17 3.46c-5.45,2.33 -8.27,7.78 -6.73,12.98l13.07 43.7c1.54,5.2 7.04,8.69 13.08,8.3l8.97 -0.55c5.8,11.12 12.69,21.72 20.52,31.69l-5.09 6.61c-3.42,4.44 -2.8,10.4 1.46,14.23l35.94 32.05c4.26,3.81 10.96,4.4 15.99,1.39l7.49 -4.49c11.17,7.02 23.09,13.18 35.6,18.38l-0.7 7.97c-0.43,5.36 3.45,10.27 9.3,11.66l49.17 11.83c5.85,1.41 11.99,-1.07 14.63,-5.9l3.98 -7.22c6.99,0.56 14.06,0.89 21.22,0.89 6.71,0 13.36,-0.27 19.94,-0.78l3.92 7.22c2.62,4.86 8.75,7.37 14.6,5.97l49.26 -11.58c5.83,-1.37 9.76,-6.25 9.33,-11.61l-0.62 -7.96c12.56,-5.15 24.48,-11.25 35.71,-18.21l7.48 4.51c4.98,3.03 11.71,2.49 16,-1.3l36.14 -31.89c4.29,-3.79 4.93,-9.73 1.54,-14.21l-5.06 -6.63c7.94,-9.91 14.87,-20.49 20.73,-31.6l8.97 0.59c6.04,0.41 11.56,-3.03 13.15,-8.23l13.3 -43.66c1.59,-5.17 -1.2,-10.62 -6.65,-12.97l-8.11 -3.53c0.61,-6.21 0.97,-12.47 0.97,-18.83 0,-5.95 -0.3,-11.85 -0.87,-17.69l8.17 -3.49c5.44,-2.33 8.26,-7.75 6.72,-12.95z"/>
   <path class="fil0" d="M14816.39 4064.01c-44.35,0 -80.34,-31.92 -80.34,-71.31 0,-39.37 35.99,-71.29 80.34,-71.29 44.38,0 80.34,31.92 80.34,71.29 0,39.39 -35.96,71.31 -80.34,71.31zm244.61 -105.43l-13.05 -43.72c-1.53,-5.18 -7.03,-8.67 -13.07,-8.3l-8.99 0.57c-5.78,-11.15 -12.67,-21.75 -20.5,-31.69l5.09 -6.63c3.42,-4.43 2.8,-10.4 -1.46,-14.21l-35.94 -32.07c-4.26,-3.81 -10.99,-4.38 -16,-1.37l-7.48 4.49c-11.17,-7.05 -23.09,-13.2 -35.6,-18.4l0.67 -7.98c0.46,-5.34 -3.42,-10.24 -9.27,-11.65l-49.19 -11.81c-5.83,-1.41 -11.97,1.08 -14.62,5.88l-3.98 7.22c-6.98,-0.57 -14.05,-0.87 -21.22,-0.87 -6.7,0 -13.35,0.27 -19.93,0.78l-3.93 -7.25c-2.62,-4.84 -8.73,-7.34 -14.59,-5.96l-49.26 11.58c-5.83,1.39 -9.77,6.25 -9.35,11.61l0.63 7.98c-12.55,5.12 -24.49,11.23 -35.71,18.21l-7.47 -4.53c-4.98,-3.01 -11.72,-2.47 -16,1.32l-36.14 31.89c-4.29,3.79 -4.94,9.74 -1.54,14.18l5.03 6.66c-7.9,9.91 -14.84,20.47 -20.7,31.6l-9 -0.61c-6.04,-0.41 -11.53,3.05 -13.12,8.22l-13.33 43.66c-1.57,5.2 1.23,10.65 6.65,13l8.15 3.51c-0.65,6.21 -0.98,12.49 -0.98,18.83 0,5.96 0.3,11.87 0.87,17.71l-8.16 3.46c-5.45,2.33 -8.27,7.78 -6.74,12.98l13.05 43.7c1.57,5.2 7.04,8.69 13.08,8.3l8.99 -0.55c5.78,11.12 12.67,21.72 20.52,31.69l-5.11 6.61c-3.42,4.44 -2.8,10.4 1.47,14.23l35.93 32.05c4.28,3.81 10.99,4.4 16,1.39l7.5 -4.49c11.17,7.02 23.07,13.18 35.6,18.38l-0.69 7.97c-0.46,5.36 3.45,10.27 9.27,11.66l49.19 11.83c5.86,1.41 12,-1.07 14.64,-5.9l3.95 -7.22c6.99,0.56 14.09,0.89 21.22,0.89 6.74,0 13.38,-0.27 19.96,-0.78l3.91 7.22c2.62,4.86 8.76,7.37 14.58,5.97l49.28 -11.58c5.85,-1.37 9.78,-6.25 9.34,-11.61l-0.63 -7.96c12.55,-5.15 24.49,-11.25 35.73,-18.21l7.45 4.51c5.01,3.03 11.72,2.49 16,-1.3l36.14 -31.89c4.28,-3.79 4.96,-9.73 1.56,-14.21l-5.06 -6.63c7.91,-9.91 14.85,-20.49 20.71,-31.6l9 0.59c6.04,0.41 11.53,-3.03 13.12,-8.23l13.33 -43.66c1.59,-5.17 -1.21,-10.62 -6.66,-12.97l-8.13 -3.53c0.63,-6.21 0.97,-12.47 0.97,-18.83 0,-5.95 -0.28,-11.85 -0.84,-17.69l8.13 -3.49c5.48,-2.33 8.3,-7.75 6.73,-12.95z"/>
   <polygon class="fil0" points="14240.97,3809.54 13892.55,4210.17 14242.74,4210.17 "/>
   <path class="fil0" d="M14773.93 3522.93l33.58 0 -4.97 57.88 -34.34 9.25 5.72 -67.13zm654.95 93.5l-264.58 0 344.29 -92.98 -79.71 92.98zm265.02 -202.41c23.21,0 42.03,16.7 42.03,37.3 0,20.61 -18.81,37.32 -42.03,37.32 -23.22,0 -42.06,-16.72 -42.06,-37.32 0,-20.61 18.83,-37.3 42.06,-37.3zm-847.12 32.19l387.84 0 -0.95 18.4 -115.66 31.18 -275.49 0 4.26 -49.58zm-66.35 0l33.62 0 -4.23 49.58 -33.6 0 4.21 -49.58zm6.53 -76.69l33.67 0 -4.24 49.56 -33.64 0 4.21 -49.56zm6.53 -76.71l33.72 0 -4.24 49.58 -33.7 0 4.22 -49.58zm36.06 -27.12l-33.75 0 2.72 -32.3 33.77 0 -2.74 32.3zm416.29 -32.3l-1.69 32.3 -381.91 0 2.75 -32.3 380.85 0zm31 32.3l1.69 -32.3 22.18 0 2.74 32.3 -26.61 0zm33.14 76.71l-37.17 0 2.6 -49.58 30.36 0 4.21 49.58zm-454.32 0l4.24 -49.58 382.8 0 -2.59 49.58 -384.45 0zm383.01 27.12l-2.62 49.56 -386.96 0 4.23 -49.56 385.35 0zm77.83 49.56l-47.75 0 2.62 -49.56 40.93 0 4.2 49.56zm-49.67 36.59l0.51 -9.46 34.6 0 -35.11 9.46zm-430.81 116.12l4.19 -48.87 177.15 0 -181.35 48.87zm-399.06 524.2l10.66 -25.44 97.67 0c-8.95,-24.52 -13.82,-50.67 -13.82,-77.85 0,-139.65 127.58,-252.88 284.94,-252.88 157.13,0 284.53,112.87 284.95,252.24l81.79 0c0.41,-139.37 127.81,-252.24 284.94,-252.24 138.35,0 253.63,87.54 279.47,203.59l1.57 -3.2 60.87 -78.97 0 -510.64 -153.22 0 -244.84 65.99 -22.75 -267.81 -1.06 0 0 -44.77 -759.6 0 28.02 77.11 50.84 0 -36.99 435.32 0 0 -224.76 183.75 0 0.03 -0.03 0 -0.33 0.29 0 0.36 -142.76 258.62 -34.52 0 0 150.68 168.99 0 0 -114.18z"/>
   <polygon class="fil0" points="19633.75,3334.27 20314.7,3334.27 20223.85,3147.38 19724.61,3147.38 "/>
   <path class="fil0" d="M19658.46 3486.1l66.15 332.73 499.24 0 66.15 -332.73 74.59 0 0 348.95 -769.49 0 0 -348.95 63.37 0zm-313.27 175.42l149.21 262.89 970.87 0 0 -438.31 29.79 0 0 60.69c0,9.62 8.79,17.41 19.63,17.41 10.84,0 19.62,-7.79 19.62,-17.41l0 -167.84c0,-9.62 -8.78,-17.42 -19.62,-17.42 -10.84,0 -19.63,7.8 -19.63,17.42l0 60.71 -29.79 0 0 -148.68 -100.69 0 0 148.68 -65.37 0 15.49 -77.95 -680.95 0 15.49 77.95 -54.15 0 0 -148.68 -100.69 0 -149.21 370.55z"/>
   <polygon class="fil0" points="19396.29,4017.3 19452.25,4017.3 19452.25,4130.23 19541.36,4130.23 19541.36,4017.3 20387.27,4017.3 20387.27,4130.23 20476.38,4130.23 20476.38,4017.3 20562.06,4017.3 20562.06,3945.52 19396.29,3945.52 "/>
   <polygon class="fil0" points="21346.83,3882.47 21606.45,4057.93 21866.09,4233.38 20827.55,4233.38 21087.2,4057.93 "/>
   <polygon class="fil0" points="22222.25,3948.94 22481.9,4124.4 22741.53,4299.84 21703,4299.84 21962.64,4124.4 "/>
   <polygon class="fil0" points="24345.68,3964.14 24605.36,4139.58 24865.06,4315.04 23826.42,4315.04 24086.03,4139.58 "/>
   <polygon class="fil0" points="23823.39,4017.32 24083.01,4192.78 24342.59,4368.22 23304.12,4368.22 23563.75,4192.78 "/>
   <polygon class="fil0" points="21772.92,3674.72 22030.66,3882.78 22288.42,4090.87 21806.93,4266.12 21257.42,4090.87 21515.18,3882.78 "/>
   <path class="fil0" d="M26152.46 3967.83c-54.2,0 -97.87,-38.88 -97.87,-86.82 0,-47.96 43.67,-86.83 97.87,-86.83 53.94,0 97.87,38.87 97.87,86.83 0,47.94 -43.93,86.82 -97.87,86.82zm297.7 -128.41l-15.67 -53.23c-2.05,-6.31 -8.74,-10.55 -15.92,-10.1l-11.04 0.69c-6.94,-13.56 -15.42,-26.49 -24.92,-38.6l6.16 -8.06c4.11,-5.4 3.35,-12.68 -1.79,-17.3l-43.67 -39.05c-5.39,-4.66 -13.61,-5.36 -19.52,-1.68l-9.25 5.47c-13.61,-8.57 -28,-16.08 -43.42,-22.39l1.03 -9.71c0.52,-6.52 -4.35,-12.46 -11.3,-14.2l-60.11 -14.39c-6.92,-1.71 -14.38,1.3 -17.71,7.18l-4.89 8.8c-8.47,-0.71 -16.96,-1.07 -25.68,-1.07 -8.22,0 -16.44,0.34 -24.4,0.93l-4.61 -8.82c-3.35,-5.88 -10.79,-8.94 -17.99,-7.27l-59.85 14.12c-7.19,1.68 -12.08,7.61 -11.31,14.13l0.51 9.71c-15.15,6.25 -29.79,13.7 -43.41,22.18l-9 -5.51c-6.17,-3.7 -14.38,-3.03 -19.52,1.59l-43.93 38.82c-5.38,4.62 -6.16,11.88 -2.05,17.31l6.17 8.08c-9.5,12.06 -17.99,24.94 -25.17,38.49l-11.05 -0.76c-7.19,-0.48 -13.86,3.72 -15.93,10.03l-16.18 53.17c-2.05,6.31 1.55,12.94 8.22,15.82l9.76 4.28c-0.77,7.55 -1.29,15.2 -1.29,22.93 0,7.24 0.52,14.45 1.29,21.54l-10.02 4.24c-6.68,2.82 -10.02,9.46 -8.22,15.77l15.93 53.25c1.79,6.32 8.47,10.56 15.92,10.11l10.79 -0.69c7.19,13.56 15.41,26.47 25.17,38.59l-6.17 8.07c-4.36,5.4 -3.6,12.65 1.54,17.3l43.93 39.05c5.13,4.62 13.35,5.33 19.52,1.68l8.99 -5.47c13.61,8.54 28.26,16.05 43.41,22.39l-0.77 9.71c-0.51,6.51 4.11,12.46 11.31,14.18l59.84 14.41c7.19,1.7 14.65,-1.3 17.73,-7.18l4.88 -8.8c8.47,0.69 17.21,1.05 25.95,1.05 8.22,0 16.18,-0.32 24.14,-0.94l4.88 8.82c3.09,5.91 10.54,8.97 17.72,7.28l60.11 -14.12c6.93,-1.66 11.81,-7.6 11.31,-14.14l-0.78 -9.69c15.15,-6.27 29.79,-13.69 43.42,-22.18l9.24 5.5c5.9,3.69 14.13,3.02 19.28,-1.57l44.17 -38.85c5.14,-4.6 5.91,-11.88 1.79,-17.28l-6.16 -8.09c9.75,-12.08 18.23,-24.96 25.17,-38.48l11.04 0.74c7.46,0.5 14.13,-3.72 15.93,-10.04l16.18 -53.16c2.06,-6.3 -1.29,-12.95 -7.96,-15.8l-10.03 -4.28c0.78,-7.57 1.29,-15.2 1.29,-22.93 0,-7.27 -0.26,-14.46 -1.03,-21.56l10.02 -4.24c6.42,-2.83 10.02,-9.44 7.96,-15.78z"/>
   <path class="fil0" d="M25224.93 3839.97c47,0 85.02,33.81 85.02,75.53 0,41.69 -38.02,75.52 -85.02,75.52 -47.01,0 -85.28,-33.82 -85.28,-75.52 0,-41.71 38.27,-75.53 85.28,-75.53zm-259.18 111.68l13.87 46.3c1.53,5.5 7.45,9.19 13.86,8.78l9.51 -0.59c6.17,11.81 13.35,23.02 21.57,33.58l-5.4 7.02c-3.6,4.7 -2.82,11.01 1.54,15.04l38.28 33.97c4.36,4.03 11.56,4.64 16.96,1.46l7.7 -4.75c11.82,7.44 24.67,13.96 37.76,19.47l-0.78 8.44c-0.25,5.67 3.85,10.84 10.03,12.32l52.13 12.54c6.17,1.48 12.59,-1.14 15.42,-6.25l4.11 -7.66c7.45,0.58 14.9,0.93 22.61,0.93 6.92,0 14.12,-0.29 21.06,-0.82l4.11 7.66c2.82,5.13 9.24,7.8 15.42,6.34l52.13 -12.26c6.43,-1.46 10.54,-6.63 10.03,-12.31l-0.78 -8.43c13.36,-5.44 25.95,-11.9 38.02,-19.29l7.71 4.79c5.39,3.21 12.58,2.62 16.96,-1.39l38.27 -33.76c4.62,-4 5.39,-10.33 1.79,-15.04l-5.39 -7.04c8.48,-10.49 15.67,-21.69 21.83,-33.46l9.5 0.63c6.42,0.43 12.33,-3.2 14.14,-8.71l14.13 -46.23c1.54,-5.49 -1.29,-11.28 -7.19,-13.77l-8.48 -3.72c0.51,-6.58 1.03,-13.22 1.03,-19.94 0,-6.32 -0.51,-12.58 -1.03,-18.76l8.74 -3.67c5.65,-2.47 8.74,-8.23 6.94,-13.73l-13.62 -46.29c-1.79,-5.52 -7.45,-9.19 -13.86,-8.81l-9.5 0.59c-6.18,-11.81 -13.62,-23.02 -21.84,-33.55l5.4 -7.02c3.6,-4.7 3.08,-11.01 -1.54,-15.04l-38.02 -33.97c-4.62,-4.04 -11.56,-4.66 -16.96,-1.48l-7.96 4.76c-11.81,-7.45 -24.4,-13.97 -37.75,-19.46l0.77 -8.46c0.51,-5.65 -3.6,-10.85 -9.75,-12.33l-52.15 -12.51c-6.16,-1.5 -12.84,1.12 -15.41,6.25l-4.37 7.64c-7.45,-0.59 -14.89,-0.92 -22.34,-0.92 -7.19,0 -14.13,0.27 -21.32,0.83l-4.12 -7.69c-2.82,-5.13 -9.24,-7.77 -15.41,-6.31l-52.14 12.26c-6.17,1.46 -10.28,6.61 -10.03,12.28l0.78 8.44c-13.35,5.44 -25.95,11.92 -37.76,19.31l-7.95 -4.82c-5.4,-3.19 -12.33,-2.62 -16.96,1.39l-38.28 33.79c-4.62,4 -5.13,10.32 -1.54,15.01l5.14 7.04c-8.22,10.51 -15.67,21.7 -21.83,33.46l-9.5 -0.63c-6.42,-0.43 -12.32,3.23 -13.87,8.74l-14.12 46.23c-1.8,5.49 1.28,11.26 6.92,13.74l8.75 3.74c-0.78,6.57 -1.03,13.23 -1.03,19.95 0,6.32 0.25,12.55 0.77,18.73l-8.48 3.7c-5.9,2.47 -8.73,8.21 -7.18,13.72z"/>
   <path class="fil0" d="M26238.25 3319.79l0 -266.54 122.01 0 43.92 266.54 -165.93 0zm-89.91 0l-312.6 0 36.73 -266.54 275.88 0 0 266.54zm-1393.75 703c-23.89,0 -43.14,-17.17 -43.14,-38.32 0,-21.15 19.25,-38.32 43.14,-38.32 23.64,0 43.16,17.17 43.16,38.32 0,21.15 -19.53,38.32 -43.16,38.32zm1727.16 -1023.93l0 -82.7 -436.15 0 -19.53 -91.26 -119.95 0 -19.53 91.26 -145.89 0 0 82.7 65.24 0 -38.02 276.27 -724.61 166.2 -370.91 401.44 0 212.61 245.31 0 0 -212.61c49.31,-103.39 125.61,-145.21 125.61,-145.21 50.85,-33.3 113.53,-53.05 181.61,-53.05 132.79,0 245.56,75.28 287.69,180.37l298.98 0c29.8,-143.05 171.08,-251.44 340.87,-251.44 122.78,0 230.92,56.9 292.31,142.58l29.79 -125.85 48.56 0 -97.61 -591.31 56.25 0z"/>
   <path class="fil0" d="M24644.92 3030.05c0,0 157.97,52.82 144.09,184.29 -14.13,131.48 -164.65,-101.79 -164.65,-101.79l-2.31 -55.56 22.86 -26.94z"/>
   <path class="fil0" d="M24059.42 2878.05l590.38 189.66c74.48,23.94 128.17,81.96 140.25,151.39 26.97,155.79 79.63,458.7 94.52,550.43l-102.23 24.7 -98.63 -489.62c-20.81,-76.6 -80.4,-140.2 -161.83,-171.92l-489.97 -191.69 27.51 -62.94z"/>
   <path class="fil0" d="M23914.7 2850.78c3.06,-11.98 16.51,-19.49 30.04,-16.76 13.51,2.74 21.96,14.66 18.87,26.65 -3.07,11.99 -16.51,19.49 -30.03,16.76 -13.51,-2.71 -21.96,-14.66 -18.88,-26.65zm-50.72 104.62c-3.68,14.36 2.46,29.31 15.72,38.21l29.86 20.03 -195.29 524.68 63.32 12.81 308.21 -640.21 -13.4 -137.11c-1.36,-13.84 -11.07,-26.44 -26.57,-32.32 -15.89,-6.04 -34.39,-2.37 -47.12,7.98l-103.4 83.97 -31.33 121.97z"/>
   <path class="fil0" d="M23777.59 3551.12c0,0 -120.31,105.96 -103.87,324.87l-139.5 -47.09c-66.3,-22.36 -114.85,-73.47 -128.72,-135.21 -9.58,-42.65 -14.82,-87.17 -2.29,-108.16 27.89,-46.73 331.9,-90.02 331.9,-90.02l42.48 55.62z"/>
   <polygon class="fil0" points="24624.89,3062.17 24644.92,3030.05 24287.88,2855.87 24268.1,2888.01 "/>
   <line class="fil1" x1="24303.29" y1="2883.7" x2="24039.59" y2= "2772.61" />
   <polygon class="fil0" points="24299.95,2889.56 24306.38,2877.84 24042.73,2766.76 24036.46,2778.48 "/>
   <line class="fil1" x1="23894.62" y1="2971.64" x2="23630.05" y2= "3595.14" />
   <polygon class="fil0" points="23636.88,3597.44 23901.47,2973.93 23887.79,2969.37 23623.22,3592.87 "/>
   <polygon class="fil0" points="1499.17,4247.77 3598.64,4247.77 3598.64,345.68 1499.17,345.68 "/>
   <polygon class="fil0" points="29371.99,2245.55 28667.42,2549.73 28667.42,2236.55 27785.08,2669.56 27723.95,1571.7 27115.95,1571.7 26983.41,3948.96 26736.83,3948.96 26736.83,4134.98 29750.35,4134.98 29750.35,3948.96 29371.99,3948.96 "/>
   <polygon class="fil0" points="30788.09,3948.96 30788.09,2245.55 30083.76,2549.73 30083.76,2236.55 29223.28,2658.8 29223.28,4134.98 31166.44,4134.98 31166.44,3948.96 "/>
   <polygon class="fil0" points="28012.67,3056.22 28320.9,3056.22 28320.9,2792.67 28012.67,2792.67 "/>
   <polygon class="fil0" points="28012.67,3532.61 28320.9,3532.61 28320.9,3269.07 28012.67,3269.07 "/>
   <polygon class="fil0" points="28846.45,3056.22 29154.69,3056.22 29154.69,2792.67 28846.45,2792.67 "/>
   <polygon class="fil0" points="28846.45,3532.61 29154.69,3532.61 29154.69,3269.07 28846.45,3269.07 "/>
   <polygon class="fil0" points="29560.27,3056.22 29868.51,3056.22 29868.51,2792.67 29560.27,2792.67 "/>
   <polygon class="fil0" points="29560.27,3532.61 29868.51,3532.61 29868.51,3269.07 29560.27,3269.07 "/>
   <polygon class="fil0" points="30234.03,3056.22 30542.52,3056.22 30542.52,2792.67 30234.03,2792.67 "/>
   <polygon class="fil0" points="30234.03,3532.61 30542.52,3532.61 30542.52,3269.07 30234.03,3269.07 "/>
   <polygon class="fil0" points="10425.69,754.33 10651.7,754.33 10651.7,694.48 10425.69,694.48 "/>
   <polygon class="fil0" points="10734.41,754.33 11090.5,754.33 11090.5,694.48 10734.41,694.48 "/>
   <polygon class="fil0" points="9467.32,754.33 9838.71,754.33 9838.71,694.48 9467.32,694.48 "/>
   <polygon class="fil0" points="11245.59,754.33 11359.67,754.33 11359.67,694.48 11245.59,694.48 "/>
   <polygon class="fil0" points="10060.99,754.33 10203.4,754.33 10203.4,694.48 10060.99,694.48 "/>
   <polygon class="fil0" points="9467.32,694.48 9838.71,694.48 9838.71,632.32 9467.32,632.32 "/>
   <polygon class="fil0" points="10734.41,694.48 11090.5,694.48 11090.5,632.32 10734.41,632.32 "/>
   <polygon class="fil0" points="10060.99,694.48 10203.4,694.48 10203.4,632.32 10060.99,632.32 "/>
   <polygon class="fil0" points="10425.69,694.48 10651.7,694.48 10651.7,632.32 10425.69,632.32 "/>
   <polygon class="fil0" points="11245.59,694.48 11359.67,694.48 11359.67,632.32 11245.59,632.32 "/>
   <polygon class="fil0" points="9467.32,982.03 9838.71,982.03 9838.71,860.03 9467.32,860.03 "/>
   <polygon class="fil0" points="10060.99,982.03 10203.4,982.03 10203.4,860.03 10060.99,860.03 "/>
   <polygon class="fil0" points="10734.41,982.03 11090.5,982.03 11090.5,860.03 10734.41,860.03 "/>
   <polygon class="fil0" points="11245.59,982.03 11359.67,982.03 11359.67,860.03 11245.59,860.03 "/>
   <polygon class="fil0" points="10425.69,982.03 10651.7,982.03 10651.7,860.03 10425.69,860.03 "/>
   <polygon class="fil0" points="11245.59,1209.77 11359.67,1209.77 11359.67,1087.75 11245.59,1087.75 "/>
   <polygon class="fil0" points="10060.99,1209.77 10203.4,1209.77 10203.4,1087.75 10060.99,1087.75 "/>
   <polygon class="fil0" points="10425.69,1209.77 10651.7,1209.77 10651.7,1087.75 10425.69,1087.75 "/>
   <polygon class="fil0" points="9738.8,1209.77 9838.7,1209.77 9838.7,1087.76 9467.32,1087.76 9467.32,1178.01 9738.8,1178.01 "/>
   <polygon class="fil0" points="10734.41,1209.77 11090.5,1209.77 11090.5,1087.75 10734.41,1087.75 "/>
   <polygon class="fil0" points="9838.7,1315.47 9738.8,1315.47 9738.8,1360.88 9467.32,1360.88 9467.32,1437.47 9838.7,1437.47 "/>
   <polygon class="fil0" points="10060.99,1437.47 10203.4,1437.47 10203.4,1315.47 10060.99,1315.47 "/>
   <polygon class="fil0" points="11245.59,1437.47 11359.67,1437.47 11359.67,1315.47 11245.59,1315.47 "/>
   <polygon class="fil0" points="10859.17,1404.42 11054.66,1404.42 11054.66,1437.47 11090.5,1437.47 11090.5,1315.47 10734.41,1315.47 10734.41,1437.47 10859.17,1437.47 "/>
   <polygon class="fil0" points="10425.69,1437.47 10651.7,1437.47 10651.7,1315.47 10425.69,1315.47 "/>
   <polygon class="fil0" points="10425.69,1665.21 10651.7,1665.21 10651.7,1543.21 10425.69,1543.21 "/>
   <polygon class="fil0" points="9467.32,1665.21 9838.71,1665.21 9838.71,1543.21 9467.32,1543.21 "/>
   <polygon class="fil0" points="11245.59,1665.21 11359.67,1665.21 11359.67,1543.21 11245.59,1543.21 "/>
   <polygon class="fil0" points="11090.5,1543.21 11054.66,1543.21 11054.66,1639.54 10859.17,1639.54 10859.17,1543.21 10734.41,1543.21 10734.41,1665.21 11090.5,1665.21 "/>
   <polygon class="fil0" points="10060.99,1665.21 10203.4,1665.21 10203.4,1543.21 10060.99,1543.21 "/>
   <polygon class="fil0" points="11245.59,1892.91 11359.67,1892.91 11359.67,1770.91 11245.59,1770.91 "/>
   <polygon class="fil0" points="9467.32,1892.91 9838.71,1892.91 9838.71,1770.91 9467.32,1770.91 "/>
   <polygon class="fil0" points="10425.69,1892.91 10651.7,1892.91 10651.7,1770.91 10425.69,1770.91 "/>
   <polygon class="fil0" points="10734.41,1892.91 11090.5,1892.91 11090.5,1770.91 10734.41,1770.91 "/>
   <polygon class="fil0" points="10060.99,1892.91 10203.4,1892.91 10203.4,1770.91 10060.99,1770.91 "/>
   <polygon class="fil0" points="10734.41,2120.65 11090.5,2120.65 11090.5,1998.65 10734.41,1998.65 "/>
   <polygon class="fil0" points="10060.99,2120.65 10203.4,2120.65 10203.4,1998.65 10060.99,1998.65 "/>
   <polygon class="fil0" points="11245.59,2120.65 11359.67,2120.65 11359.67,1998.65 11245.59,1998.65 "/>
   <polygon class="fil0" points="9467.32,2120.65 9838.71,2120.65 9838.71,1998.65 9467.32,1998.65 "/>
   <polygon class="fil0" points="10425.69,2120.65 10651.7,2120.65 10651.7,1998.65 10425.69,1998.65 "/>
   <polygon class="fil0" points="11245.59,2348.36 11359.67,2348.36 11359.67,2226.35 11245.59,2226.35 "/>
   <polygon class="fil0" points="10425.69,2348.36 10651.7,2348.36 10651.7,2226.35 10425.69,2226.35 "/>
   <polygon class="fil0" points="10129.8,2348.36 10203.39,2348.36 10203.39,2226.35 10060.99,2226.35 10060.99,2283.93 10129.8,2283.93 "/>
   <polygon class="fil0" points="9467.32,2348.36 9838.71,2348.36 9838.71,2226.35 9467.32,2226.35 "/>
   <polygon class="fil0" points="10734.41,2348.36 11090.5,2348.36 11090.5,2226.35 10734.41,2226.35 "/>
   <polygon class="fil0" points="10425.69,2583 10651.7,2583 10651.7,2461 10425.69,2461 "/>
   <polygon class="fil0" points="11245.59,2583 11359.67,2583 11359.67,2461 11245.59,2461 "/>
   <polygon class="fil0" points="9776.41,2583 9838.7,2583 9838.7,2461 9467.32,2461 9467.32,2553.87 9776.41,2553.87 "/>
   <polygon class="fil0" points="10203.39,2461 10129.8,2461 10129.8,2562.57 10060.99,2562.57 10060.99,2583 10203.39,2583 "/>
   <polygon class="fil0" points="10734.41,2583 11090.5,2583 11090.5,2461 10734.41,2461 "/>
   <polygon class="fil0" points="9838.7,2688.72 9776.41,2688.72 9776.41,2736.73 9467.32,2736.73 9467.32,2810.73 9838.7,2810.73 "/>
   <polygon class="fil0" points="10425.69,2810.73 10651.7,2810.73 10651.7,2688.72 10425.69,2688.72 "/>
   <polygon class="fil0" points="10734.41,2810.73 11090.5,2810.73 11090.5,2688.72 10734.41,2688.72 "/>
   <polygon class="fil0" points="11245.59,2810.73 11359.67,2810.73 11359.67,2688.72 11245.59,2688.72 "/>
   <polygon class="fil0" points="10060.99,2810.73 10203.4,2810.73 10203.4,2688.72 10060.99,2688.72 "/>
   <polygon class="fil0" points="10425.69,3038.44 10651.7,3038.44 10651.7,2916.44 10425.69,2916.44 "/>
   <polygon class="fil0" points="9467.32,3038.44 9838.71,3038.44 9838.71,2916.44 9467.32,2916.44 "/>
   <polygon class="fil0" points="11245.59,3038.44 11359.67,3038.44 11359.67,2916.44 11245.59,2916.44 "/>
   <polygon class="fil0" points="10060.99,3038.44 10203.4,3038.44 10203.4,2916.44 10060.99,2916.44 "/>
   <polygon class="fil0" points="10734.41,3038.44 11090.5,3038.44 11090.5,2916.44 10734.41,2916.44 "/>
   <polygon class="fil0" points="10425.69,3266.15 10651.7,3266.15 10651.7,3144.17 10425.69,3144.17 "/>
   <polygon class="fil0" points="10060.99,3266.15 10203.4,3266.15 10203.4,3144.17 10060.99,3144.17 "/>
   <polygon class="fil0" points="11245.59,3266.15 11359.67,3266.15 11359.67,3144.17 11245.59,3144.17 "/>
   <polygon class="fil0" points="9467.32,3266.15 9838.71,3266.15 9838.71,3144.17 9467.32,3144.17 "/>
   <polygon class="fil0" points="10734.41,3266.15 11090.5,3266.15 11090.5,3144.17 10734.41,3144.17 "/>
   <polygon class="fil0" points="10734.41,3493.88 11090.5,3493.88 11090.5,3371.88 10734.41,3371.88 "/>
   <polygon class="fil0" points="10060.99,3493.88 10203.4,3493.88 10203.4,3371.88 10060.99,3371.88 "/>
   <polygon class="fil0" points="10425.69,3493.88 10651.7,3493.88 10651.7,3371.88 10425.69,3371.88 "/>
   <polygon class="fil0" points="11245.59,3493.88 11359.67,3493.88 11359.67,3371.88 11245.59,3371.88 "/>
   <polygon class="fil0" points="9467.32,3493.88 9838.71,3493.88 9838.71,3371.88 9467.32,3371.88 "/>
   <polygon class="fil0" points="9467.32,3721.59 9838.71,3721.59 9838.71,3599.62 9467.32,3599.62 "/>
   <polygon class="fil0" points="10425.69,3721.59 10651.7,3721.59 10651.7,3599.62 10425.69,3599.62 "/>
   <polygon class="fil0" points="11245.59,3721.59 11359.67,3721.59 11359.67,3599.62 11245.59,3599.62 "/>
   <polygon class="fil0" points="10734.41,3721.59 11090.5,3721.59 11090.5,3599.62 10734.41,3599.62 "/>
   <polygon class="fil0" points="10060.99,3721.59 10203.4,3721.59 10203.4,3599.62 10060.99,3599.62 "/>
   <polygon class="fil0" points="10425.69,3949.33 10651.7,3949.33 10651.7,3827.32 10425.69,3827.32 "/>
   <polygon class="fil0" points="10734.41,3949.33 11090.5,3949.33 11090.5,3827.32 10734.41,3827.32 "/>
   <polygon class="fil0" points="11245.59,3949.33 11359.67,3949.33 11359.67,3827.32 11245.59,3827.32 "/>
   <polygon class="fil0" points="9467.32,3949.33 9838.71,3949.33 9838.71,3827.32 9467.32,3827.32 "/>
   <polygon class="fil0" points="10060.99,3949.33 10203.4,3949.33 10203.4,3827.32 10060.99,3827.32 "/>
   <polygon class="fil0" points="10060.99,4130.02 10203.4,4130.02 10203.4,4055.05 10060.99,4055.05 "/>
   <polygon class="fil0" points="10425.69,4130.02 10651.7,4130.02 10651.7,4055.05 10425.69,4055.05 "/>
   <polygon class="fil0" points="10734.41,4130.02 11090.5,4130.02 11090.5,4055.05 10734.41,4055.05 "/>
   <polygon class="fil0" points="11245.59,4130.02 11359.67,4130.02 11359.67,4055.05 11245.59,4055.05 "/>
   <polygon class="fil0" points="9467.32,4130.02 9838.71,4130.02 9838.71,4055.05 9467.32,4055.05 "/>
   <polygon class="fil0" points="9384.62,2688.72 9438.04,2688.72 9438.04,2583.01 9384.62,2583.01 "/>
   <polygon class="fil0" points="9384.62,2461 9467.32,2461 9467.32,2348.36 9384.62,2348.36 "/>
   <polygon class="fil0" points="9384.62,3827.32 9467.32,3827.32 9467.32,3721.59 9384.62,3721.59 "/>
   <polygon class="fil0" points="9384.62,4055.06 9467.32,4055.06 9467.32,3949.33 9384.62,3949.33 "/>
   <polygon class="fil0" points="9384.62,3599.61 9467.32,3599.61 9467.32,3493.87 9384.62,3493.87 "/>
   <polygon class="fil0" points="9384.62,3144.17 9467.32,3144.17 9467.32,3038.44 9384.62,3038.44 "/>
   <polygon class="fil0" points="9384.62,2916.44 9467.32,2916.44 9467.32,2810.73 9384.62,2810.73 "/>
   <polygon class="fil0" points="9384.62,3371.88 9467.32,3371.88 9467.32,3266.15 9384.62,3266.15 "/>
   <polygon class="fil0" points="9384.62,1998.65 9467.32,1998.65 9467.32,1892.92 9384.62,1892.92 "/>
   <polygon class="fil0" points="9384.62,1543.21 9467.32,1543.21 9467.32,1437.47 9384.62,1437.47 "/>
   <polygon class="fil0" points="9384.62,860.03 9467.32,860.03 9467.32,754.32 9384.62,754.32 "/>
   <polygon class="fil0" points="9384.62,1087.76 9467.32,1087.76 9467.32,982.03 9384.62,982.03 "/>
   <polygon class="fil0" points="9384.62,1315.47 9415.46,1315.47 9415.46,1209.77 9384.62,1209.77 "/>
   <polygon class="fil0" points="9384.62,1770.91 9467.32,1770.91 9467.32,1665.21 9384.62,1665.21 "/>
   <polygon class="fil0" points="9384.62,2226.35 9467.32,2226.35 9467.32,2120.65 9384.62,2120.65 "/>
   <polygon class="fil0" points="9384.62,754.33 9467.32,754.33 9467.32,694.48 9384.62,694.48 "/>
   <polygon class="fil0" points="9384.62,694.48 9467.32,694.48 9467.32,632.32 9384.62,632.32 "/>
   <polygon class="fil0" points="9384.62,982.03 9467.32,982.03 9467.32,860.03 9384.62,860.03 "/>
   <polygon class="fil0" points="9415.46,1178.01 9467.32,1178.01 9467.32,1087.76 9384.62,1087.76 9384.62,1209.77 9415.46,1209.77 "/>
   <polygon class="fil0" points="9467.32,1360.88 9415.46,1360.88 9415.46,1315.47 9384.62,1315.47 9384.62,1437.47 9467.32,1437.47 "/>
   <polygon class="fil0" points="9384.62,1665.21 9467.32,1665.21 9467.32,1543.21 9384.62,1543.21 "/>
   <polygon class="fil0" points="9384.62,1892.91 9467.32,1892.91 9467.32,1770.91 9384.62,1770.91 "/>
   <polygon class="fil0" points="9384.62,2120.65 9467.32,2120.65 9467.32,1998.65 9384.62,1998.65 "/>
   <polygon class="fil0" points="9384.62,2348.36 9467.32,2348.36 9467.32,2226.35 9384.62,2226.35 "/>
   <polygon class="fil0" points="9438.04,2553.87 9467.32,2553.87 9467.32,2461 9384.62,2461 9384.62,2583 9438.04,2583 "/>
   <polygon class="fil0" points="9467.32,2736.73 9438.04,2736.73 9438.04,2688.72 9384.62,2688.72 9384.62,2810.73 9467.32,2810.73 "/>
   <polygon class="fil0" points="9384.62,3038.44 9467.32,3038.44 9467.32,2916.44 9384.62,2916.44 "/>
   <polygon class="fil0" points="9384.62,3266.15 9467.32,3266.15 9467.32,3144.17 9384.62,3144.17 "/>
   <polygon class="fil0" points="9384.62,3493.88 9467.32,3493.88 9467.32,3371.88 9384.62,3371.88 "/>
   <polygon class="fil0" points="9384.62,3721.59 9467.32,3721.59 9467.32,3599.62 9384.62,3599.62 "/>
   <polygon class="fil0" points="9384.62,3949.33 9467.32,3949.33 9467.32,3827.32 9384.62,3827.32 "/>
   <polygon class="fil0" points="9384.62,4130.02 9467.32,4130.02 9467.32,4055.05 9384.62,4055.05 "/>
   <polygon class="fil0" points="9838.7,1998.65 10060.99,1998.65 10060.99,1892.92 9838.7,1892.92 "/>
   <polygon class="fil0" points="9838.7,2916.44 10060.99,2916.44 10060.99,2810.73 9838.7,2810.73 "/>
   <polygon class="fil0" points="9838.7,2461 10001.99,2461 10001.99,2348.36 9838.7,2348.36 "/>
   <polygon class="fil0" points="9838.7,2688.72 10060.99,2688.72 10060.99,2583.01 9838.7,2583.01 "/>
   <polygon class="fil0" points="9838.7,2226.35 10060.99,2226.35 10060.99,2120.65 9838.7,2120.65 "/>
   <polygon class="fil0" points="9838.7,3371.88 10060.99,3371.88 10060.99,3266.15 9838.7,3266.15 "/>
   <polygon class="fil0" points="9838.7,4055.06 10060.99,4055.06 10060.99,3949.33 9838.7,3949.33 "/>
   <polygon class="fil0" points="9838.7,3599.61 10060.99,3599.61 10060.99,3493.87 9838.7,3493.87 "/>
   <polygon class="fil0" points="9838.7,3144.17 10060.99,3144.17 10060.99,3038.44 9838.7,3038.44 "/>
   <polygon class="fil0" points="9838.7,1770.91 10060.99,1770.91 10060.99,1665.21 9838.7,1665.21 "/>
   <polygon class="fil0" points="9838.7,1315.47 10060.99,1315.47 10060.99,1209.77 9838.7,1209.77 "/>
   <polygon class="fil0" points="9838.7,860.03 10060.99,860.03 10060.99,754.32 9838.7,754.32 "/>
   <polygon class="fil0" points="9838.7,1087.76 10060.99,1087.76 10060.99,982.03 9838.7,982.03 "/>
   <polygon class="fil0" points="9838.7,3827.32 10060.99,3827.32 10060.99,3721.59 9838.7,3721.59 "/>
   <polygon class="fil0" points="9838.7,1543.21 10060.99,1543.21 10060.99,1437.47 9838.7,1437.47 "/>
   <polygon class="fil0" points="9838.7,754.33 10060.99,754.33 10060.99,694.48 9838.7,694.48 "/>
   <polygon class="fil0" points="9838.7,694.48 10060.99,694.48 10060.99,632.32 9838.7,632.32 "/>
   <polygon class="fil0" points="9838.7,982.03 10060.99,982.03 10060.99,860.03 9838.7,860.03 "/>
   <polygon class="fil0" points="9838.7,1209.77 10060.99,1209.77 10060.99,1087.75 9838.7,1087.75 "/>
   <polygon class="fil0" points="9838.7,1437.47 10060.99,1437.47 10060.99,1315.47 9838.7,1315.47 "/>
   <polygon class="fil0" points="9838.7,1665.21 10060.99,1665.21 10060.99,1543.21 9838.7,1543.21 "/>
   <polygon class="fil0" points="9838.7,1892.91 10060.99,1892.91 10060.99,1770.91 9838.7,1770.91 "/>
   <polygon class="fil0" points="9838.7,2120.65 10060.99,2120.65 10060.99,1998.65 9838.7,1998.65 "/>
   <polygon class="fil0" points="10001.99,2283.93 10060.99,2283.93 10060.99,2226.35 9838.7,2226.35 9838.7,2348.36 10001.99,2348.36 "/>
   <polygon class="fil0" points="10060.99,2562.57 10001.99,2562.57 10001.99,2461 9838.7,2461 9838.7,2583 10060.99,2583 "/>
   <polygon class="fil0" points="9838.7,2810.73 10060.99,2810.73 10060.99,2688.72 9838.7,2688.72 "/>
   <polygon class="fil0" points="9838.7,3038.44 10060.99,3038.44 10060.99,2916.44 9838.7,2916.44 "/>
   <polygon class="fil0" points="9838.7,3266.15 10060.99,3266.15 10060.99,3144.17 9838.7,3144.17 "/>
   <polygon class="fil0" points="9838.7,3493.88 10060.99,3493.88 10060.99,3371.88 9838.7,3371.88 "/>
   <polygon class="fil0" points="9838.7,3721.59 10060.99,3721.59 10060.99,3599.62 9838.7,3599.62 "/>
   <polygon class="fil0" points="9838.7,3949.33 10060.99,3949.33 10060.99,3827.32 9838.7,3827.32 "/>
   <polygon class="fil0" points="9838.7,4130.02 10060.99,4130.02 10060.99,4055.05 9838.7,4055.05 "/>
   <polygon class="fil0" points="10203.39,4055.06 10425.68,4055.06 10425.68,3949.33 10203.39,3949.33 "/>
   <polygon class="fil0" points="10203.39,2916.44 10425.68,2916.44 10425.68,2810.73 10203.39,2810.73 "/>
   <polygon class="fil0" points="10203.39,2688.72 10425.68,2688.72 10425.68,2583.01 10203.39,2583.01 "/>
   <polygon class="fil0" points="10203.39,2461 10425.68,2461 10425.68,2348.36 10203.39,2348.36 "/>
   <polygon class="fil0" points="10203.39,2226.35 10425.68,2226.35 10425.68,2120.65 10203.39,2120.65 "/>
   <polygon class="fil0" points="10203.39,3827.32 10425.68,3827.32 10425.68,3721.59 10203.39,3721.59 "/>
   <polygon class="fil0" points="10203.39,1998.65 10425.68,1998.65 10425.68,1892.92 10203.39,1892.92 "/>
   <polygon class="fil0" points="10203.39,3599.61 10425.68,3599.61 10425.68,3493.87 10203.39,3493.87 "/>
   <polygon class="fil0" points="10203.39,3144.17 10425.68,3144.17 10425.68,3038.44 10203.39,3038.44 "/>
   <polygon class="fil0" points="10203.39,3371.88 10425.68,3371.88 10425.68,3266.15 10203.39,3266.15 "/>
   <polygon class="fil0" points="10203.39,860.03 10425.68,860.03 10425.68,754.32 10203.39,754.32 "/>
   <polygon class="fil0" points="10203.39,1770.91 10425.68,1770.91 10425.68,1665.21 10203.39,1665.21 "/>
   <polygon class="fil0" points="10203.39,1087.76 10425.68,1087.76 10425.68,982.03 10203.39,982.03 "/>
   <polygon class="fil0" points="10203.39,1543.21 10425.68,1543.21 10425.68,1437.47 10203.39,1437.47 "/>
   <polygon class="fil0" points="10203.39,1315.47 10425.68,1315.47 10425.68,1209.77 10203.39,1209.77 "/>
   <polygon class="fil0" points="10203.39,754.33 10425.68,754.33 10425.68,694.48 10203.39,694.48 "/>
   <polygon class="fil0" points="10203.39,694.48 10425.68,694.48 10425.68,632.32 10203.39,632.32 "/>
   <polygon class="fil0" points="10203.39,982.03 10425.68,982.03 10425.68,860.03 10203.39,860.03 "/>
   <polygon class="fil0" points="10203.39,1209.77 10425.68,1209.77 10425.68,1087.75 10203.39,1087.75 "/>
   <polygon class="fil0" points="10203.39,1437.47 10425.68,1437.47 10425.68,1315.47 10203.39,1315.47 "/>
   <polygon class="fil0" points="10203.39,1665.21 10425.68,1665.21 10425.68,1543.21 10203.39,1543.21 "/>
   <polygon class="fil0" points="10203.39,1892.91 10425.68,1892.91 10425.68,1770.91 10203.39,1770.91 "/>
   <polygon class="fil0" points="10203.39,2120.65 10425.68,2120.65 10425.68,1998.65 10203.39,1998.65 "/>
   <polygon class="fil0" points="10203.39,2348.36 10425.68,2348.36 10425.68,2226.35 10203.39,2226.35 "/>
   <polygon class="fil0" points="10203.39,2583 10425.68,2583 10425.68,2461 10203.39,2461 "/>
   <polygon class="fil0" points="10203.39,2810.73 10425.68,2810.73 10425.68,2688.72 10203.39,2688.72 "/>
   <polygon class="fil0" points="10203.39,3038.44 10425.68,3038.44 10425.68,2916.44 10203.39,2916.44 "/>
   <polygon class="fil0" points="10203.39,3266.15 10425.68,3266.15 10425.68,3144.17 10203.39,3144.17 "/>
   <polygon class="fil0" points="10203.39,3493.88 10425.68,3493.88 10425.68,3371.88 10203.39,3371.88 "/>
   <polygon class="fil0" points="10203.39,3721.59 10425.68,3721.59 10425.68,3599.62 10203.39,3599.62 "/>
   <polygon class="fil0" points="10203.39,3949.33 10425.68,3949.33 10425.68,3827.32 10203.39,3827.32 "/>
   <polygon class="fil0" points="10203.39,4130.02 10425.68,4130.02 10425.68,4055.05 10203.39,4055.05 "/>
   <polygon class="fil0" points="10651.7,1998.65 10734.42,1998.65 10734.42,1892.92 10651.7,1892.92 "/>
   <polygon class="fil0" points="10651.7,1770.91 10734.42,1770.91 10734.42,1665.21 10651.7,1665.21 "/>
   <polygon class="fil0" points="10651.7,2226.35 10734.42,2226.35 10734.42,2120.65 10651.7,2120.65 "/>
   <polygon class="fil0" points="10651.7,4055.06 10734.42,4055.06 10734.42,3949.33 10651.7,3949.33 "/>
   <polygon class="fil0" points="10651.7,3599.61 10734.42,3599.61 10734.42,3493.87 10651.7,3493.87 "/>
   <polygon class="fil0" points="10651.7,1315.47 10734.42,1315.47 10734.42,1209.77 10651.7,1209.77 "/>
   <polygon class="fil0" points="10651.7,1543.21 10734.42,1543.21 10734.42,1437.47 10651.7,1437.47 "/>
   <polygon class="fil0" points="10651.7,3371.88 10734.42,3371.88 10734.42,3266.15 10651.7,3266.15 "/>
   <polygon class="fil0" points="10651.7,1087.76 10734.42,1087.76 10734.42,982.03 10651.7,982.03 "/>
   <polygon class="fil0" points="10651.7,2916.44 10734.42,2916.44 10734.42,2810.73 10651.7,2810.73 "/>
   <polygon class="fil0" points="10651.7,3827.32 10734.42,3827.32 10734.42,3721.59 10651.7,3721.59 "/>
   <polygon class="fil0" points="10651.7,860.03 10734.42,860.03 10734.42,754.32 10651.7,754.32 "/>
   <polygon class="fil0" points="10651.7,2688.72 10734.42,2688.72 10734.42,2583.01 10651.7,2583.01 "/>
   <polygon class="fil0" points="10651.7,3144.17 10734.42,3144.17 10734.42,3038.44 10651.7,3038.44 "/>
   <polygon class="fil0" points="10651.7,2461 10734.42,2461 10734.42,2348.36 10651.7,2348.36 "/>
   <polygon class="fil0" points="10651.7,754.33 10734.42,754.33 10734.42,694.48 10651.7,694.48 "/>
   <polygon class="fil0" points="10651.7,694.48 10734.42,694.48 10734.42,632.32 10651.7,632.32 "/>
   <polygon class="fil0" points="10651.7,982.03 10734.42,982.03 10734.42,860.03 10651.7,860.03 "/>
   <polygon class="fil0" points="10651.7,1209.77 10734.42,1209.77 10734.42,1087.75 10651.7,1087.75 "/>
   <polygon class="fil0" points="10651.7,1437.47 10734.42,1437.47 10734.42,1315.47 10651.7,1315.47 "/>
   <polygon class="fil0" points="10651.7,1665.21 10734.42,1665.21 10734.42,1543.21 10651.7,1543.21 "/>
   <polygon class="fil0" points="10651.7,1892.91 10734.42,1892.91 10734.42,1770.91 10651.7,1770.91 "/>
   <polygon class="fil0" points="10651.7,2120.65 10734.42,2120.65 10734.42,1998.65 10651.7,1998.65 "/>
   <polygon class="fil0" points="10651.7,2348.36 10734.42,2348.36 10734.42,2226.35 10651.7,2226.35 "/>
   <polygon class="fil0" points="10651.7,2583 10734.42,2583 10734.42,2461 10651.7,2461 "/>
   <polygon class="fil0" points="10651.7,2810.73 10734.42,2810.73 10734.42,2688.72 10651.7,2688.72 "/>
   <polygon class="fil0" points="10651.7,3038.44 10734.42,3038.44 10734.42,2916.44 10651.7,2916.44 "/>
   <polygon class="fil0" points="10651.7,3266.15 10734.42,3266.15 10734.42,3144.17 10651.7,3144.17 "/>
   <polygon class="fil0" points="10651.7,3493.88 10734.42,3493.88 10734.42,3371.88 10651.7,3371.88 "/>
   <polygon class="fil0" points="10651.7,3721.59 10734.42,3721.59 10734.42,3599.62 10651.7,3599.62 "/>
   <polygon class="fil0" points="10651.7,3949.33 10734.42,3949.33 10734.42,3827.32 10651.7,3827.32 "/>
   <polygon class="fil0" points="10651.7,4130.02 10734.42,4130.02 10734.42,4055.05 10651.7,4055.05 "/>
   <polygon class="fil0" points="11090.5,3144.17 11245.59,3144.17 11245.59,3038.44 11090.5,3038.44 "/>
   <polygon class="fil0" points="11090.5,2688.72 11245.59,2688.72 11245.59,2583.01 11090.5,2583.01 "/>
   <polygon class="fil0" points="11090.5,860.03 11245.59,860.03 11245.59,754.32 11090.5,754.32 "/>
   <polygon class="fil0" points="11090.5,2916.44 11245.59,2916.44 11245.59,2810.73 11090.5,2810.73 "/>
   <polygon class="fil0" points="11090.5,1998.65 11245.59,1998.65 11245.59,1892.92 11090.5,1892.92 "/>
   <polygon class="fil0" points="11090.5,2461 11245.59,2461 11245.59,2348.36 11090.5,2348.36 "/>
   <polygon class="fil0" points="11090.5,3827.32 11245.59,3827.32 11245.59,3721.59 11090.5,3721.59 "/>
   <polygon class="fil0" points="11090.5,1770.91 11245.59,1770.91 11245.59,1665.21 11090.5,1665.21 "/>
   <polygon class="fil0" points="11090.5,2226.35 11245.59,2226.35 11245.59,2120.65 11090.5,2120.65 "/>
   <polygon class="fil0" points="11090.5,4055.06 11245.59,4055.06 11245.59,3949.33 11090.5,3949.33 "/>
   <polygon class="fil0" points="11090.5,1087.76 11245.59,1087.76 11245.59,982.03 11090.5,982.03 "/>
   <polygon class="fil0" points="11090.5,1315.47 11245.59,1315.47 11245.59,1209.77 11090.5,1209.77 "/>
   <polygon class="fil0" points="11090.5,3599.61 11245.59,3599.61 11245.59,3493.87 11090.5,3493.87 "/>
   <polygon class="fil0" points="11090.5,3371.88 11245.59,3371.88 11245.59,3266.15 11090.5,3266.15 "/>
   <polygon class="fil0" points="11090.5,1543.21 11245.59,1543.21 11245.59,1437.47 11090.5,1437.47 "/>
   <polygon class="fil0" points="11090.5,754.33 11245.59,754.33 11245.59,694.48 11090.5,694.48 "/>
   <polygon class="fil0" points="11090.5,694.48 11245.59,694.48 11245.59,632.32 11090.5,632.32 "/>
   <polygon class="fil0" points="11090.5,982.03 11245.59,982.03 11245.59,860.03 11090.5,860.03 "/>
   <polygon class="fil0" points="11090.5,1209.77 11245.59,1209.77 11245.59,1087.75 11090.5,1087.75 "/>
   <polygon class="fil0" points="11090.5,1437.47 11245.59,1437.47 11245.59,1315.47 11090.5,1315.47 "/>
   <polygon class="fil0" points="11090.5,1665.21 11245.59,1665.21 11245.59,1543.21 11090.5,1543.21 "/>
   <polygon class="fil0" points="11090.5,1892.91 11245.59,1892.91 11245.59,1770.91 11090.5,1770.91 "/>
   <polygon class="fil0" points="11090.5,2120.65 11245.59,2120.65 11245.59,1998.65 11090.5,1998.65 "/>
   <polygon class="fil0" points="11090.5,2348.36 11245.59,2348.36 11245.59,2226.35 11090.5,2226.35 "/>
   <polygon class="fil0" points="11090.5,2583 11245.59,2583 11245.59,2461 11090.5,2461 "/>
   <polygon class="fil0" points="11090.5,2810.73 11245.59,2810.73 11245.59,2688.72 11090.5,2688.72 "/>
   <polygon class="fil0" points="11090.5,3038.44 11245.59,3038.44 11245.59,2916.44 11090.5,2916.44 "/>
   <polygon class="fil0" points="11090.5,3266.15 11245.59,3266.15 11245.59,3144.17 11090.5,3144.17 "/>
   <polygon class="fil0" points="11090.5,3493.88 11245.59,3493.88 11245.59,3371.88 11090.5,3371.88 "/>
   <polygon class="fil0" points="11090.5,3721.59 11245.59,3721.59 11245.59,3599.62 11090.5,3599.62 "/>
   <polygon class="fil0" points="11090.5,3949.33 11245.59,3949.33 11245.59,3827.32 11090.5,3827.32 "/>
   <polygon class="fil0" points="11090.5,4130.02 11245.59,4130.02 11245.59,4055.05 11090.5,4055.05 "/>
   <polygon class="fil0" points="11359.67,3827.32 11524.16,3827.32 11524.16,3721.59 11359.67,3721.59 "/>
   <polygon class="fil0" points="11359.67,860.03 11524.16,860.03 11524.16,754.32 11359.67,754.32 "/>
   <polygon class="fil0" points="11359.67,1543.21 11524.16,1543.21 11524.16,1437.47 11359.67,1437.47 "/>
   <polygon class="fil0" points="11359.67,3144.17 11524.16,3144.17 11524.16,3038.44 11359.67,3038.44 "/>
   <polygon class="fil0" points="11359.67,2688.72 11524.16,2688.72 11524.16,2583.01 11359.67,2583.01 "/>
   <polygon class="fil0" points="11359.67,4055.06 11524.16,4055.06 11524.16,3949.33 11359.67,3949.33 "/>
   <polygon class="fil0" points="11359.67,3371.88 11524.16,3371.88 11524.16,3266.15 11359.67,3266.15 "/>
   <polygon class="fil0" points="11359.67,1087.76 11524.16,1087.76 11524.16,982.03 11359.67,982.03 "/>
   <polygon class="fil0" points="11359.67,1315.47 11524.16,1315.47 11524.16,1209.77 11359.67,1209.77 "/>
   <polygon class="fil0" points="11359.67,2916.44 11524.16,2916.44 11524.16,2810.73 11359.67,2810.73 "/>
   <polygon class="fil0" points="11359.67,1770.91 11524.16,1770.91 11524.16,1665.21 11359.67,1665.21 "/>
   <polygon class="fil0" points="11359.67,1998.65 11524.16,1998.65 11524.16,1892.92 11359.67,1892.92 "/>
   <polygon class="fil0" points="11359.67,2226.35 11524.16,2226.35 11524.16,2120.65 11359.67,2120.65 "/>
   <polygon class="fil0" points="11359.67,3599.61 11524.16,3599.61 11524.16,3493.87 11359.67,3493.87 "/>
   <polygon class="fil0" points="11359.67,2461 11524.16,2461 11524.16,2348.36 11359.67,2348.36 "/>
   <polygon class="fil0" points="11359.67,754.33 11524.16,754.33 11524.16,694.48 11359.67,694.48 "/>
   <polygon class="fil0" points="11359.67,694.48 11524.16,694.48 11524.16,632.32 11359.67,632.32 "/>
   <polygon class="fil0" points="11359.67,982.03 11524.16,982.03 11524.16,860.03 11359.67,860.03 "/>
   <polygon class="fil0" points="11359.67,1209.77 11524.16,1209.77 11524.16,1087.75 11359.67,1087.75 "/>
   <polygon class="fil0" points="11359.67,1437.47 11524.16,1437.47 11524.16,1315.47 11359.67,1315.47 "/>
   <polygon class="fil0" points="11359.67,1665.21 11524.16,1665.21 11524.16,1543.21 11359.67,1543.21 "/>
   <polygon class="fil0" points="11359.67,1892.91 11524.16,1892.91 11524.16,1770.91 11359.67,1770.91 "/>
   <polygon class="fil0" points="11359.67,2120.65 11524.16,2120.65 11524.16,1998.65 11359.67,1998.65 "/>
   <polygon class="fil0" points="11359.67,2348.36 11524.16,2348.36 11524.16,2226.35 11359.67,2226.35 "/>
   <polygon class="fil0" points="11359.67,2583 11524.16,2583 11524.16,2461 11359.67,2461 "/>
   <polygon class="fil0" points="11359.67,2810.73 11524.16,2810.73 11524.16,2688.72 11359.67,2688.72 "/>
   <polygon class="fil0" points="11359.67,3038.44 11524.16,3038.44 11524.16,2916.44 11359.67,2916.44 "/>
   <polygon class="fil0" points="11359.67,3266.15 11524.16,3266.15 11524.16,3144.17 11359.67,3144.17 "/>
   <polygon class="fil0" points="11359.67,3493.88 11524.16,3493.88 11524.16,3371.88 11359.67,3371.88 "/>
   <polygon class="fil0" points="11359.67,3721.59 11524.16,3721.59 11524.16,3599.62 11359.67,3599.62 "/>
   <polygon class="fil0" points="11359.67,3949.33 11524.16,3949.33 11524.16,3827.32 11359.67,3827.32 "/>
   <polygon class="fil0" points="11359.67,4130.02 11524.16,4130.02 11524.16,4055.05 11359.67,4055.05 "/>
   <polygon class="fil0" points="9467.32,1209.77 9738.8,1209.77 9738.8,1178.01 9467.32,1178.01 "/>
   <polygon class="fil0" points="9467.32,1360.88 9738.8,1360.88 9738.8,1315.47 9467.32,1315.47 "/>
   <polygon class="fil0" points="9415.46,1315.47 9467.31,1315.47 9467.31,1209.77 9415.46,1209.77 "/>
   <polygon class="fil0" points="9415.46,1209.77 9467.31,1209.77 9467.31,1178.01 9415.46,1178.01 "/>
   <polygon class="fil0" points="9415.46,1360.88 9467.31,1360.88 9467.31,1315.47 9415.46,1315.47 "/>
   <polygon class="fil0" points="10060.99,2461 10129.8,2461 10129.8,2348.36 10060.99,2348.36 "/>
   <polygon class="fil0" points="10060.99,2348.36 10129.8,2348.36 10129.8,2283.93 10060.99,2283.93 "/>
   <polygon class="fil0" points="10060.99,2562.57 10129.8,2562.57 10129.8,2461 10060.99,2461 "/>
   <polygon class="fil0" points="10001.99,2461 10060.99,2461 10060.99,2348.36 10001.99,2348.36 "/>
   <polygon class="fil0" points="10001.99,2348.36 10060.99,2348.36 10060.99,2283.93 10001.99,2283.93 "/>
   <polygon class="fil0" points="10001.99,2562.57 10060.99,2562.57 10060.99,2461 10001.99,2461 "/>
   <polygon class="fil0" points="9467.32,2583 9776.42,2583 9776.42,2553.86 9467.32,2553.86 "/>
   <polygon class="fil0" points="9467.32,2736.73 9776.42,2736.73 9776.42,2688.72 9467.32,2688.72 "/>
   <polygon class="fil0" points="9438.04,2688.72 9467.32,2688.72 9467.32,2583.01 9438.04,2583.01 "/>
   <polygon class="fil0" points="9438.04,2583 9467.32,2583 9467.32,2553.86 9438.04,2553.86 "/>
   <polygon class="fil0" points="9438.04,2736.73 9467.32,2736.73 9467.32,2688.72 9438.04,2688.72 "/>
   <polygon class="fil0" points="10859.17,1437.47 11054.66,1437.47 11054.66,1404.42 10859.17,1404.42 "/>
   <polygon class="fil0" points="10859.17,1639.54 11054.66,1639.54 11054.66,1543.21 10859.17,1543.21 "/>
   <polygon class="fil0" points="9571.32,669.52 11302.87,669.52 11302.87,509.63 9571.32,509.63 "/>
   <polygon class="fil0" points="9819.71,656.21 10961.43,656.21 10961.43,345.32 9819.71,345.32 "/>
   <polygon class="fil0" points="11744.97,4215.59 13735.66,4215.59 13735.66,3896.43 11744.97,3896.43 "/>
   <polygon class="fil0" points="11963.3,4044.61 13491.65,4044.61 13491.65,3691.27 11963.3,3691.27 "/>
   <polygon class="fil0" points="12344.31,4018.01 13294.7,4018.01 13294.7,3463.31 12344.31,3463.31 "/>
   <path class="fil0" d="M8306.88 4173.8l-1685.72 0c-89.76,0 -162.78,-64.82 -162.78,-144.49 0,-79.64 73.02,-144.46 162.78,-144.46l1685.72 0c89.78,0 162.81,64.82 162.81,144.46 0,79.67 -73.03,144.49 -162.81,144.49zm0 -372.86l-1685.72 0c-141.51,0 -257.3,102.76 -257.3,228.37l0 0c0,125.62 115.79,228.37 257.3,228.37l1685.72 0c141.54,0 257.33,-102.75 257.33,-228.37l0 0c0,-125.61 -115.79,-228.37 -257.33,-228.37z"/>
   <path class="fil0" d="M6765.16 4028.97c0,-64.33 -58.76,-116.51 -131.28,-116.51 -72.49,0 -131.29,52.17 -131.29,116.51 0,64.35 58.8,116.54 131.29,116.54 72.52,0 131.28,-52.18 131.28,-116.54z"/>
   <path class="fil0" d="M6681.15 4028.97c0,-23.15 -21.15,-41.94 -47.27,-41.94 -26.11,0 -47.27,18.78 -47.27,41.94 0,23.19 21.16,41.95 47.27,41.95 26.12,0 47.27,-18.75 47.27,-41.95z"/>
   <path class="fil0" d="M7040.01 4028.97c0,-64.33 -58.8,-116.51 -131.28,-116.51 -72.52,0 -131.32,52.17 -131.32,116.51 0,64.35 58.8,116.54 131.32,116.54 72.48,0 131.28,-52.18 131.28,-116.54z"/>
   <path class="fil0" d="M6955.99 4028.97c0,-23.15 -21.17,-41.94 -47.26,-41.94 -26.13,0 -47.27,18.78 -47.27,41.94 0,23.19 21.14,41.95 47.27,41.95 26.09,0 47.26,-18.75 47.26,-41.95z"/>
   <path class="fil0" d="M7314.83 4028.97c0,-64.33 -58.77,-116.51 -131.28,-116.51 -72.52,0 -131.29,52.17 -131.29,116.51 0,64.35 58.77,116.54 131.29,116.54 72.51,0 131.28,-52.18 131.28,-116.54z"/>
   <path class="fil0" d="M7230.8 4028.97c0,-23.15 -21.16,-41.94 -47.26,-41.94 -26.11,0 -47.28,18.78 -47.28,41.94 0,23.19 21.17,41.95 47.28,41.95 26.1,0 47.26,-18.75 47.26,-41.95z"/>
   <path class="fil0" d="M7589.65 4028.97c0,-64.33 -58.77,-116.51 -131.29,-116.51 -72.51,0 -131.28,52.17 -131.28,116.51 0,64.35 58.77,116.54 131.28,116.54 72.52,0 131.29,-52.18 131.29,-116.54z"/>
   <path class="fil0" d="M7505.62 4028.97c0,-23.15 -21.17,-41.94 -47.27,-41.94 -26.1,0 -47.26,18.78 -47.26,41.94 0,23.19 21.16,41.95 47.26,41.95 26.1,0 47.27,-18.75 47.27,-41.95z"/>
   <path class="fil0" d="M7864.49 4028.97c0,-64.33 -58.8,-116.51 -131.31,-116.51 -72.49,0 -131.29,52.17 -131.29,116.51 0,64.35 58.8,116.54 131.29,116.54 72.51,0 131.31,-52.18 131.31,-116.54z"/>
   <path class="fil0" d="M7780.44 4028.97c0,-23.15 -21.14,-41.94 -47.26,-41.94 -26.1,0 -47.27,18.78 -47.27,41.94 0,23.19 21.17,41.95 47.27,41.95 26.12,0 47.26,-18.75 47.26,-41.95z"/>
   <path class="fil0" d="M8139.31 4028.97c0,-64.33 -58.79,-116.51 -131.29,-116.51 -72.52,0 -131.28,52.17 -131.28,116.51 0,64.35 58.76,116.54 131.28,116.54 72.5,0 131.29,-52.18 131.29,-116.54z"/>
   <path class="fil0" d="M8055.29 4028.97c0,-23.15 -21.17,-41.94 -47.27,-41.94 -26.13,0 -47.27,18.78 -47.27,41.94 0,23.19 21.14,41.95 47.27,41.95 26.1,0 47.27,-18.75 47.27,-41.95z"/>
   <path class="fil0" d="M8414.12 4028.97c0,-64.33 -58.76,-116.51 -131.28,-116.51 -72.52,0 -131.29,52.17 -131.29,116.51 0,64.35 58.77,116.54 131.29,116.54 72.52,0 131.28,-52.18 131.28,-116.54z"/>
   <path class="fil0" d="M8330.11 4028.97c0,-23.15 -21.17,-41.94 -47.27,-41.94 -26.1,0 -47.26,18.78 -47.26,41.94 0,23.19 21.16,41.95 47.26,41.95 26.1,0 47.27,-18.75 47.27,-41.95z"/>
   <path class="fil0" d="M5182.29 3444.51l-2.47 -235.75 12.2 -0.09 -0.18 -18.25 6.04 -0.04 -0.23 -24.55 -6.04 0.05 -0.98 -99.32 6.04 -0.06 -0.26 -24.54 -6.01 0.05 -1.11 -111.05 2.21 0c13.82,13.93 26.11,32.7 29.54,57.06 5.06,35.59 35.16,213.53 60.75,363.83l-99.5 92.67zm137.24 127.85l-42.97 38.24 -65.87 -89.73 85.97 -82c13.24,77.5 22.87,133.48 22.87,133.48zm36.39 -740.78l277.87 -22.18 0.86 10.26 41.97 -2.98 0.38 4.72 27.59 -1.8 -0.38 -4.88 148.1 -10.49 0.51 6.25 27.59 -1.77 -0.54 -6.43 127.74 -9.06 0.49 5.93 27.59 -1.77 -0.52 -6.12 66.38 -4.7c-8.89,9.87 -28.15,19.38 -47.19,27.1 -10.02,1.18 -20.29,2.71 -30.87,4.72l-529.66 129.26 -78.45 -17.31 -37.68 -32.32 -21.77 -66.43zm45.51 701.62l45.96 -463.95 637.28 -38.36 884.13 556.06 72.07 -290.26 -513.23 -274.38c0,0 -331.92,-220.6 -346.36,-249.16 -14.46,-28.57 -25.76,-34.68 -44.05,-33.69 -9.91,0.52 -16.05,4.97 -20.78,12.77l-83.97 5.94 -0.38 -4.58 -27.59 1.78 0.38 4.77 -127.71 9.05 -0.36 -4.26 -27.59 1.78 0.36 4.44 -148.1 10.48 -0.47 -5.79 -27.61 1.78 0.49 5.97 -41.95 2.96 0.97 11.99 -280.47 22.39 -6.06 -18.49c0,0 -73.8,-65.06 -216.43,57.38l12.71 38.77c0,0 3.5,1.3 9,4.01l0.02 4.08 -6.04 0.05 0.26 24.54 6.01 -0.04 1.11 111.04 -6.04 0.05 0.22 24.54 6.04 -0.05 0.99 99.33 -6.05 0.05 0.23 24.54 6.04 -0.04 0.18 18.21 12.92 -0.09 2.6 246.98 -52.71 49.08c0,0 -12.69,51.9 31.1,44.01l107.47 152.11 1.29 130.72c0,0 64.79,94.43 164.55,47.66 99.74,-46.78 360.37,-222.22 360.37,-222.22 0,0 -274.51,-37.25 -380.8,-123.96z"/>
   <polygon class="fil0" points="7088.27,3831.12 7878.08,3831.12 7878.08,3593.07 7088.27,3593.07 "/>
   <path class="fil0" d="M7997.55 3193.12l-358.4 0c-52.17,0 -94.48,-37.55 -94.48,-83.85l0 -308.32 -275.35 0c-206.14,0 -453.94,108.81 -456.81,401.01l1.33 2.13c-0.88,6.18 -1.33,13.13 -1.33,20.95l0 240.56c0,124.15 113.4,224.77 253.29,224.77l931.75 0c139.88,0 253.29,-100.62 253.29,-224.77l0 -47.69c0,-124.14 -113.4,-224.78 -253.29,-224.78z"/>
   <path class="fil0" d="M7486.9 3130.33l0 -278.12 -217.59 0c-174.49,0 -377.62,83.97 -397.34,317.29l570.82 0c24.35,0 44.11,-17.52 44.11,-39.16z"/>
   <path class="fil0" d="M18367.36 557.16l0 -94.15 -69.65 0 0 -57.93 1045.23 152.07 -975.57 0zm-41.56 2550.32l-124.14 -90.4 124.14 -92.62 0 183.02zm0 109.61l-169.58 126.54 -176.95 -128.84 346.53 0 0 2.3zm0 250.05l-124.14 -90.41 124.14 -92.64 0 183.05zm0 355.69l-124.14 -90.41 124.14 -92.64 0 183.05zm-169.58 -123.49l-171.54 -124.9 338.94 0 -167.4 124.9zm0.43 -289.05l155.02 112.88 -306.28 0 151.26 -112.88zm-189.67 -138.1l144.23 105.02 -144.23 107.62 0 -212.64zm0.82 -659.01l144.26 105.04 -125.55 93.68 -18.71 0 0 -198.72zm-324.23 -2056.02c99.53,-44.87 229.18,-102.2 349.82,-155.06l0 60.91 -69.66 0 0 94.15 -280.16 0zm683.07 482.94l-124.16 -90.41 124.16 -92.63 0 183.04zm-169.17 1711.2l83.23 60.6 -164.42 0 81.19 -60.6zm169.17 -126.2l0 183.03 -124.16 -90.41 124.16 -92.62zm-2.21 -65.35l-167.39 124.9 -171.54 -124.9 338.93 0zm-212.4 -197.23l-144.24 107.62 0 -212.64 144.24 105.02zm0.02 -359.64l-144.26 107.63 0 -212.67 144.26 105.04zm0 -355.7l-144.26 107.62 0 -212.67 144.26 105.05zm0 -341.31l-144.26 107.62 0 -212.64 144.26 105.02zm-144.26 -248.07l0 -212.66 144.26 105.02 -144.26 107.64zm38.43 38.33l151.27 -112.87 155 112.87 -306.27 0zm150.82 176.19l-171.54 -124.92 338.93 0 -167.39 124.92zm45.43 33.08l124.16 -92.65 0 183.05 -124.16 -90.4zm0 341.3l124.16 -92.65 0 183.06 -124.16 -90.41zm0 355.71l124.16 -92.65 0 183.04 -124.16 -90.39zm-45.01 33.55l155.03 112.87 -306.29 0 151.26 -112.87zm166.97 -191.55l-167.39 124.9 -171.54 -124.9 338.93 0zm-166.94 -164.16l155 112.89 -306.27 0 151.27 -112.89zm-151.29 -228.42l151.26 -112.86 155.03 112.86 -306.29 0zm298.91 51.28l-148.07 110.49 -151.76 -110.49 299.84 0zm-148.07 825.83l-176.93 -128.81 346.53 0 0 2.28 -169.6 126.53zm155.45 179.54l-306.29 0 151.26 -112.88 155.03 112.88zm-110.02 -146.43l124.16 -92.65 0 183.06 -124.16 -90.41zm-46.26 621.96l-171.54 -124.9 338.94 0 -167.4 124.9zm0.43 66.66l155.02 112.86 -306.28 0 151.26 -112.86zm-189.67 -138.13l144.23 105.05 -144.23 107.62 0 -212.67zm356.82 -2120.37l-166.76 124.45 -170.9 -124.45 337.65 0zm4035.99 -177.92l-2373.62 0 -94.58 -57.08 -191.54 0 -1402.35 -204.05 0 -67.96 -108.84 0 0 -285.16 -84.53 0 0 285.16 -110.95 0 0 59.68c-162.23,70.89 -325.4,143.01 -433.12,192.67l-62.43 -91.91 -314.86 0 0 111.57 -102.74 0 0 83.66 -253.53 0 0 79.42 725.82 0 0 -0.71 316.22 0 0 2092.36 -0.82 0 0 1016.91 99.05 0 0 -200.92 144.23 105.04 -128.51 95.88 89.81 0 84.14 -62.8 86.23 62.8 181.96 0 0 -1014.7 0.83 0 0 -2094.57 4159.5 0 -225.38 -105.29z"/>
   <polygon class="fil0" points="17344.6,4420.75 19001.38,4420.75 19001.38,3771.06 17344.6,3771.06 "/>
   <polygon class="fil0" points="21882.54,2787.02 21951.03,2787.02 21951.03,644.2 21882.54,644.2 "/>
   <polygon class="fil0" points="20932.16,2829.62 22935.69,2829.62 22935.69,2384.28 20932.16,2384.28 "/>
   <path class="fil0" d="M24498.25 4099.66l0 195.7 -2054.9 0 0 -195.7 -16259.68 0c-22.17,108.03 -128.54,190 -256.68,190 -99.74,0 -186.35,-49.64 -230.32,-122.59 -14.04,3.03 -28.6,4.81 -43.68,4.81 -19.47,0 -38.22,-2.73 -55.84,-7.7 -2.26,182.94 -169.86,330.65 -376.53,330.65 -171.3,0 -315.69,-101.57 -361.41,-240.51 -50.16,49.58 -122.7,80.95 -203.69,80.95 -148.44,0 -269.01,-104.84 -273.56,-235.6l-4381.95 0 0 575.26 32854.56 0 0 -575.26 -8356.31 0z"/>
   <path class="fil0" d="M6034.02 4275.43c0,-68.74 -157.67,-124.45 -352.11,-124.45 -194.47,0 -352.14,55.71 -352.14,124.45 0,68.7 157.67,124.42 352.14,124.42 194.44,0 352.11,-55.72 352.11,-124.42z"/>
   <path class="fil0" d="M5605.91 4446.39c0,-99.17 -166.76,-179.52 -372.45,-179.52 -205.7,0 -372.46,80.35 -372.46,179.52 0,99.14 166.77,179.52 372.46,179.52 205.7,0 372.45,-80.39 372.45,-179.52z"/>
   <polygon class="fil0" points="1697.74,762.48 1896.19,762.48 1896.19,531.22 1697.74,531.22 "/>
   <polygon class="fil0" points="2077.83,762.48 2276.29,762.48 2276.29,531.22 2077.83,531.22 "/>
   <polygon class="fil0" points="2457.9,762.48 2656.39,762.48 2656.39,531.22 2457.9,531.22 "/>
   <polygon class="fil0" points="3218.1,762.48 3416.55,762.48 3416.55,531.22 3218.1,531.22 "/>
   <polygon class="fil0" points="1697.74,1221.6 1896.19,1221.6 1896.19,990.34 1697.74,990.34 "/>
   <polygon class="fil0" points="2077.83,1221.6 2276.29,1221.6 2276.29,990.34 2077.83,990.34 "/>
   <polygon class="fil0" points="2457.9,1221.6 2656.39,1221.6 2656.39,990.34 2457.9,990.34 "/>
   <polygon class="fil0" points="2838.01,1221.6 3036.47,1221.6 3036.47,990.34 2838.01,990.34 "/>
   <polygon class="fil0" points="3218.1,1221.6 3416.55,1221.6 3416.55,990.34 3218.1,990.34 "/>
   <polygon class="fil0" points="1697.74,1680.7 1896.19,1680.7 1896.19,1449.44 1697.74,1449.44 "/>
   <polygon class="fil0" points="2077.83,1680.7 2276.29,1680.7 2276.29,1449.44 2077.83,1449.44 "/>
   <polygon class="fil0" points="2838.01,1680.7 3036.47,1680.7 3036.47,1449.44 2838.01,1449.44 "/>
   <polygon class="fil0" points="3218.1,1680.7 3416.55,1680.7 3416.55,1449.44 3218.1,1449.44 "/>
   <polygon class="fil0" points="2077.83,2139.82 2276.29,2139.82 2276.29,1908.56 2077.83,1908.56 "/>
   <polygon class="fil0" points="2457.9,2139.82 2656.39,2139.82 2656.39,1908.56 2457.9,1908.56 "/>
   <polygon class="fil0" points="2838.01,2139.82 3036.47,2139.82 3036.47,1908.56 2838.01,1908.56 "/>
   <polygon class="fil0" points="3218.1,2139.82 3416.55,2139.82 3416.55,1908.56 3218.1,1908.56 "/>
   <polygon class="fil0" points="1697.74,2598.94 1896.19,2598.94 1896.19,2367.66 1697.74,2367.66 "/>
   <polygon class="fil0" points="2457.9,2598.94 2656.39,2598.94 2656.39,2367.66 2457.9,2367.66 "/>
   <polygon class="fil0" points="2838.01,2598.94 3036.47,2598.94 3036.47,2367.66 2838.01,2367.66 "/>
   <polygon class="fil0" points="1697.74,3058.05 1896.19,3058.05 1896.19,2826.76 1697.74,2826.76 "/>
   <polygon class="fil0" points="2077.83,3058.05 2276.29,3058.05 2276.29,2826.76 2077.83,2826.76 "/>
   <polygon class="fil0" points="2457.9,3058.05 2656.39,3058.05 2656.39,2826.76 2457.9,2826.76 "/>
   <polygon class="fil0" points="2838.01,3058.05 3036.47,3058.05 3036.47,2826.76 2838.01,2826.76 "/>
   <polygon class="fil0" points="3218.1,3058.05 3416.55,3058.05 3416.55,2826.76 3218.1,2826.76 "/>
   <polygon class="fil0" points="1697.74,3517.16 1896.19,3517.16 1896.19,3285.87 1697.74,3285.87 "/>
   <polygon class="fil0" points="2077.83,3517.16 2276.29,3517.16 2276.29,3285.87 2077.83,3285.87 "/>
   <polygon class="fil0" points="2457.9,3517.16 2656.39,3517.16 2656.39,3285.87 2457.9,3285.87 "/>
   <polygon class="fil0" points="3218.1,3517.16 3416.55,3517.16 3416.55,3285.87 3218.1,3285.87 "/>
   <polygon class="fil0" points="1697.74,3976.27 1896.19,3976.27 1896.19,3744.97 1697.74,3744.97 "/>
   <polygon class="fil0" points="3218.1,3976.27 3416.55,3976.27 3416.55,3744.97 3218.1,3744.97 "/>
   <polygon class="fil0" points="1093.67,4337.15 1230.66,4337.15 1230.66,325.05 1093.67,325.05 "/>
   <polygon class="fil0" points="3765.06,4367.54 3919.18,4367.54 3919.18,993.72 3765.06,993.72 "/>
   <polygon class="fil0" points="4210.29,4291.56 4278.79,4291.56 4278.79,1647.22 4210.29,1647.22 "/>
   <polygon class="fil0" points="109.02,4329.56 1085.1,4329.56 1085.1,3942.03 109.02,3942.03 "/>
   <polygon class="fil0" points="31549.17,4332.98 32705.07,4332.98 32705.07,3694.69 31549.17,3694.69 "/>
  </g>
 </g>
</svg>
